<svg version="1.1" xmlns="http://www.w3.org/2000/svg" xmlns:xlink="http://www.w3.org/1999/xlink" style="display:none">
<symbol viewBox="0 0 110 110" id="Baby-Mobile"><g id="Artboard"/><g id="Multicolor"><circle style="fill:#25B7D3;" cx="55" cy="55" r="55"/><g><g><path style="fill:#6FDAF1;" d="M64,67c0,0,2.154-6.949,5-6c2.871,0.957,2.384,8.327-0.586,14.218
				c-0.314,0.622-0.786,1.155-1.368,1.538C62.403,79.815,53.195,79,45,79C37,79,31.942,62.993,64,67z"/></g><g><path style="fill:#9CE5F4;" d="M44.69,78.981l12.555-12.555C33.114,65.398,37.488,78.605,44.69,78.981z"/></g><path style="fill:#F0F1F1;" d="M78.313,39c-0.184-0.128-22.683-15.795-22.886-15.893c0,0-0.001-0.001-0.002-0.001
			c-0.297-0.141-0.646-0.138-0.936,0.033L27.726,39h3.923l19.634-11.635L42.719,39h2.473L55,25.586L64.808,39h2.473l-7.902-10.736
			L74.812,39H78.313z"/><g><path style="fill:#DF2C2C;" d="M87,43c0,1.105-0.895,2-2,2H25c-1.105,0-2-0.895-2-2v-2c0-1.105,0.895-2,2-2h60
				c1.105,0,2,0.895,2,2V43z"/></g><g><path style="fill:#F0F1F1;" d="M35,51v-6h-2v6.437C33.614,51.166,34.285,51,35,51z"/></g><g><path style="fill:#F0F1F1;" d="M27,62.95V63c4.472,0,10.48,0,14.944,0c2.097-2.05,0.894-5.631-2.056-5.961
				C40.552,53.908,38.163,51,35,51c-2.371,0-4.347,1.655-4.861,3.87C27.171,52.707,23,54.823,23,58.5
				C23,60.814,24.753,62.698,27,62.95z"/></g><g><path style="fill:#F0F1F1;" d="M77,51.683V45h-2v8h0.105C75.656,52.461,76.296,52.017,77,51.683z"/></g><g><path style="fill:#FBE158;" d="M83,63c-2.761,0-5-2.239-5-5s2.239-5,5-5c0.923,0,1.776,0.267,2.518,0.703
				C84.237,52.061,82.245,51,80,51c-3.866,0-7,3.134-7,7s3.134,7,7,7c2.245,0,4.237-1.061,5.518-2.703
				C84.776,62.733,83.923,63,83,63z"/></g><g><path style="fill:#F0F1F1;" d="M56,66.374V45h-2v21.366C54.645,66.358,55.305,66.357,56,66.374z"/></g><g><path style="fill:#9CE5F4;" d="M49.386,78.374c-0.281-0.288-0.363-0.716-0.206-1.087c0.156-0.371,0.519-0.612,0.922-0.612
				c2.374,0,5.817,0,7.129,0c0.3,0,0.586,0.135,0.776,0.368c0.915,1.123,2.457,2.947,2.901,4.355c0.2,0.635,0.072,1.328-0.343,1.849
				c-0.415,0.521-1.062,0.8-1.726,0.746C55.274,83.705,51.912,80.959,49.386,78.374z"/></g><g><circle style="fill:#21B2D1;" cx="46" cy="73" r="2"/></g><g><circle style="fill:#21B2D1;" cx="54" cy="73" r="2"/></g><g><circle style="fill:#21B2D1;" cx="62" cy="73" r="2"/></g><g><path style="fill:#FBEC9A;" d="M73,58c0,1.424,0.428,2.748,1.159,3.854l3.842-3.842C78.001,58.007,78,58.004,78,58
				c0-2.761,2.239-5,5-5l0.011,0.001l0.839-0.839C82.746,51.43,81.425,51,80,51C76.134,51,73,54.134,73,58z"/></g><g><path style="fill:#FFFFFF;" d="M30.139,54.87C27.17,52.707,23,54.823,23,58.5c0,1.859,1.14,3.424,2.749,4.104l11.202-11.202
				C36.354,51.148,35.698,51,35,51C32.629,51,30.653,52.655,30.139,54.87z"/></g><g><path style="fill:#FA5655;" d="M55,39H25c-1.104,0-2,0.896-2,2v2c0,1.104,0.896,2,2,2h30V39z"/></g></g></g></symbol>
<symbol viewBox="0 0 110 110" id="Bag-Present"><g id="Artboard"/><g id="Multicolor"><circle style="fill:#FABC3D;" cx="55" cy="55" r="55"/><g><path style="fill:#FFFFFF;" d="M43,35h36l7.418,44.507C86.723,81.335,85.311,83,83.459,83H35L43,35z"/><rect x="23" y="55" style="fill:#DF2C2C;" width="48" height="32"/><polygon style="fill:#FA5655;" points="23,55 23,87 26.891,87 58.891,55 		"/><g><path style="fill:#3E3E3F;" d="M70,42c0,0.552-0.448,1-1,1s-1-0.448-1-1V32c0-3.86-3.14-7-7-7s-7,3.14-7,7v10
				c0,0.552-0.448,1-1,1s-1-0.448-1-1V32c0-4.962,4.037-9,9-9s9,4.038,9,9V42z"/></g><polygon style="fill:#FACB1B;" points="71,70 57,70 57,55 53,55 53,70 23,70 23,74 53,74 53,87 57,87 57,74 71,74 		"/><path style="fill:#FBE158;" d="M66.067,61.442c-2.02-2.02-5.652-1.661-8.114,0.8c-1.748,1.748-2.538,6.216-2.85,8.667
			l-0.178,0.147l-0.178-0.147c-0.313-2.451-1.103-6.919-2.85-8.667c-2.461-2.461-6.094-2.82-8.114-0.8
			c-2.02,2.02-1.662,5.652,0.8,8.114c1.475,1.475,4.888,2.266,7.393,2.667l-5.184,5.089L50.054,80l4.871-7.368L59.795,80
			l3.263-2.689l-5.184-5.089c2.505-0.4,5.918-1.192,7.393-2.667C67.728,67.094,68.086,63.461,66.067,61.442z M45.596,66.992
			c-1.257-1.258-1.44-3.113-0.409-4.145s2.887-0.849,4.145,0.409s1.547,5.283,1.547,5.283S46.854,68.249,45.596,66.992z
			 M58.97,68.539c0,0,0.29-4.026,1.547-5.283s3.113-1.44,4.145-0.409s0.849,2.887-0.409,4.145
			C62.995,68.249,58.97,68.539,58.97,68.539z"/><path style="fill:#FBEC9A;" d="M45.596,66.992c-1.257-1.258-1.44-3.113-0.409-4.145s2.887-0.849,4.145,0.409
			c0.198,0.198,0.37,0.47,0.523,0.78l1.907-1.907c-2.458-2.348-5.995-2.672-7.98-0.687c-1.985,1.985-1.661,5.522,0.687,7.98
			l1.907-1.907C46.067,67.362,45.795,67.19,45.596,66.992z"/><g><polygon style="fill:#FBE158;" points="53,55 53,60.891 57,56.891 57,55 			"/><polygon style="fill:#FBE158;" points="23,70 23,74 39.891,74 43.891,70 			"/></g></g></g></symbol>
<symbol viewBox="0 0 110 110" id="Application-Map"><g id="Artboard"/><g id="Multicolor"><circle style="fill:#E04F5F;" cx="55" cy="55" r="55"/><g><path style="fill:#FFFFFF;" d="M73,81c0,3.314-2.686,6-6,6H43c-3.314,0-6-2.686-6-6V29c0-3.314,2.686-6,6-6h24
			c3.314,0,6,2.686,6,6V81z"/><polygon style="fill:#4AC3AF;" points="39,35 39,65.872 55.171,35 		"/><polygon style="fill:#21B2D1;" points="39,74.491 39,75 68.24,75 47.208,58.822 		"/><polygon style="fill:#FBE158;" points="59.686,35 48.621,56.124 71,73.338 71,35 		"/><circle style="fill:#B6BCBD;" cx="48" cy="30" r="1"/><path style="fill:#B6BCBD;" d="M63,30c0,0.552-0.448,1-1,1H52c-0.552,0-1-0.448-1-1s0.448-1,1-1h10C62.552,29,63,29.448,63,30z"/><circle style="fill:#CFD3D4;" cx="55" cy="81" r="4"/><rect x="53" y="79" style="fill:#FFFFFF;" width="4" height="4"/><polygon style="fill:#F0F1F1;" points="48.621,56.124 59.686,35 55.171,35 39,65.872 39,74.491 47.208,58.822 68.24,75 71,75 
			71,73.338 		"/><path style="fill:#DF2C2C;" d="M68,46.5c0,3.59-6.5,15.6-6.5,15.6S55,50.09,55,46.5s2.91-6.5,6.5-6.5S68,42.91,68,46.5z"/><circle style="fill:#FFFFFF;" cx="61.5" cy="46.5" r="2.9"/></g></g></symbol>
<symbol viewBox="0 0 110 110" id="Batman"><g id="Artboard"/><g id="Multicolor"><circle style="fill:#25B7D3;" cx="55" cy="55" r="55"/><g><path style="fill:#3E3E3F;" d="M63.973,27.688C61.789,25.998,58.841,25,55,25s-6.789,0.998-8.973,2.688L40,23l1,17
			c0,8.284,6.268,15,14,15s14-6.716,14-15l1-17L63.973,27.688z"/><path style="fill:#5B5C5F;" d="M46.027,27.688L40,23l1,17c0,8.284,6.268,15,14,15V25C51.159,25,48.211,25.998,46.027,27.688z"/><path style="fill:#3E3E3F;" d="M55,49c-4,0-28,2-28,34c0,0,10,4,28,4s28-4,28-4C83,51,59,49,55,49z"/><path style="fill:#CFD3D4;" d="M55,87c6.848,0,12.534-0.579,16.956-1.297C71.055,59.729,55,55,55,55s-16.055,4.729-16.956,30.703
			C42.466,86.421,48.152,87,55,87z"/><path style="fill:#3E3E3F;" d="M63,68l-4,3v-4l-4,3l-4-3v4l-3.997-3c-3.012,2.559-5.095,5.652-5,10c6-0.667,9.997,0,12.997,5
			c3-5,7-5.667,13-5C68.095,73.652,66.012,70.559,63,68z"/><path style="fill:#FBC8C8;" d="M55,55c3.694,0,7.045-1.545,9.546-4.05C69.105,37.41,58.678,45,55,45s-14.105-7.59-9.546,5.95
			C47.955,53.455,51.306,55,55,55z"/><path style="fill:#CFD3D4;" d="M62.523,39.692c-2.49,1.341-5.723,0.173-5.723,0.173s0.805-3.341,3.295-4.682
			c2.49-1.341,5.723-0.173,5.723-0.173S65.013,38.351,62.523,39.692z"/><path style="fill:#CFD3D4;" d="M47.477,39.692c2.49,1.341,5.723,0.173,5.723,0.173s-0.805-3.341-3.295-4.682
			c-2.49-1.341-5.723-0.173-5.723-0.173S44.987,38.351,47.477,39.692z"/><path style="fill:#FBD7D7;" d="M45.454,50.95C47.956,53.455,51.306,55,55,55V45C51.322,45,40.895,37.41,45.454,50.95z"/><path style="fill:#F79392;" d="M50,48h10c0,0,0,3-5,3S50,48,50,48z"/><path style="fill:#5B5C5F;" d="M51,67v4l-3.997-3c-3.011,2.559-5.095,5.652-5,10c6-0.667,9.997,0,12.997,5V70L51,67z"/></g></g></symbol>
<symbol viewBox="0 0 110 110" id="Battery-Charging"><g id="Artboard"/><g id="Multicolor"><circle style="fill:#32BEA6;" cx="55" cy="55" r="55"/><g><path style="fill:#FFFFFF;" d="M71,31h-8v-4c0-2.209-1.791-4-4-4h-8c-2.209,0-4,1.791-4,4v4h-8c-3.314,0-6,2.687-6,6v44
			c0,3.313,2.686,6,6,6h32c3.314,0,6-2.687,6-6V37C77,33.687,74.314,31,71,31z"/><path style="fill:#059BBF;" d="M73,81c0,1.105-0.895,2-2,2H39c-1.105,0-2-0.895-2-2V37c0-1.105,0.895-2,2-2h32
			c1.105,0,2,0.895,2,2V81z"/><path style="fill:#21B2D1;" d="M55,35H39c-1.104,0-2,0.896-2,2v44c0,1.104,0.896,2,2,2h16V35z"/><polygon style="fill:#FFFFFF;" points="63,42.875 43.5,62.375 53.25,62.375 50,75.375 69.5,55.875 59.75,55.875 		"/></g></g></symbol>
<symbol viewBox="0 0 110 110" id="Beach"><g id="Artboard"/><g id="Multicolor"><circle style="fill:#FABC3D;" cx="55" cy="55" r="55"/><g><g><path style="fill:#F8E1C2;" d="M22.926,87.052h64C79.942,74.829,38.618,62.642,22.926,87.052z"/></g><path style="fill:#84462D;" d="M54.926,42.052c-0.972-0.04-1.918-0.043-2.846-0.02c-1.656,1.505-3.167,3.179-4.534,4.97
			c-7.69,10.05-11.013,23.586-12.139,29.308c4.828-2.209,10.196-3.229,15.617-3.34c0.263-8.215,1.145-17.889,3.542-24.659
			c0.727-2.11,1.467-3.617,2.129-4.7C56.141,43.063,55.561,42.536,54.926,42.052z"/><g><path style="fill:#0C7367;" d="M54.926,42.052c-8.058-0.329-14.565,1.567-20,5c1.11-4.971,4.296-8.725,10-11
				c-6.119-1.922-12.117-0.526-18,4c6.402-11.443,15.209-13.565,26-8c-0.699-3.264-4.013-5.85-9-8c7.873-0.394,13.412,1.427,15,7
				c3.851-3.019,7.878-2.481,12,0c-3.129-0.024-5.889,1.033-8,4c8.103,1.754,11.203,7.872,12,16c-3.802-4.298-7.723-7.61-12-8
				c1.888,4.164,1.446,8.125,0,12C61.443,49.77,59.063,45.207,54.926,42.052z"/></g><g><path style="fill:#9C6144;" d="M38.306,65.331c-0.09,0.27-0.175,0.534-0.26,0.8c4.197,0.405,11.18,1.657,13.19,2.041
				c0.04-0.67,0.09-1.32,0.13-1.96C49.448,65.9,42.378,64.864,38.306,65.331z"/></g><g><path style="fill:#9C6144;" d="M40.862,58.636c-0.096,0.22-0.189,0.439-0.282,0.658c3.244,0.656,8.554,2.059,11.167,2.927
				c0.06-0.65,0.14-1.28,0.22-1.89C49.289,59.583,44.023,58.5,40.862,58.636z"/></g><g><path style="fill:#9C6144;" d="M43.733,52.841c-0.092,0.164-0.187,0.328-0.278,0.493c2.612,0.628,6.696,1.817,9.16,2.728
				c0.11-0.61,0.22-1.2,0.34-1.76C50.57,53.577,46.688,52.784,43.733,52.841z"/></g><g><path style="fill:#9C6144;" d="M47.546,47.002c-0.149,0.195-0.292,0.396-0.438,0.594c2.225,0.588,5.286,1.409,6.968,2.236
				c0.16-0.54,0.32-1.04,0.49-1.521c-1.745-0.658-4.7-1.215-6.957-1.389C47.589,46.949,47.567,46.975,47.546,47.002z"/></g><g><path style="fill:#FCF1E2;" d="M22.926,87.052H42.09l13.938-13.938C43.49,72.158,30.344,75.512,22.926,87.052z"/></g></g></g></symbol>
<symbol viewBox="0 0 110 110" id="Bell"><g id="Artboard"/><g id="Multicolor"><circle style="fill:#E04F5F;" cx="55" cy="55" r="55"/><g><path style="fill:#FACB1B;" d="M78.5,71c-3.4-2.8-7.5-7.55-7.5-28c0,0,0-1.8-0.93-4c-1.46-3.49-5.26-8-15.07-8
			s-13.61,4.51-15.07,8C39,41.2,39,43,39,43c0,20.45-4.1,25.2-7.5,28c-2.43,2-4.5,3.01-4.5,8h28h28C83,74.01,80.93,73,78.5,71z"/><path style="fill:#FBEC9A;" d="M55,79H27c0-4.99,2.07-6,4.5-8c3.4-2.8,7.5-7.55,7.5-28c0,0,0-1.8,0.93-4c1.46-3.49,5.26-8,15.07-8
			V79z"/><circle style="fill:#FBE158;" cx="55" cy="27" r="4"/><path style="fill:#FACB1B;" d="M39.015,42.685c0.071-1,0.364-2.381,0.915-3.685H55v4H39C39,43,39,42.888,39.015,42.685z"/><path style="fill:#F3B607;" d="M70.985,42.685c-0.071-1-0.364-2.381-0.915-3.685H55v4h16C71,43,71,42.888,70.985,42.685z"/><path style="fill:#F3B607;" d="M78.5,71H55v8h28C83,74.01,80.93,73,78.5,71z"/><path style="fill:#FACB1B;" d="M31.5,71H55v8H27C27,74.01,29.07,73,31.5,71z"/><path style="fill:#FBE158;" d="M55,87c4.418,0,8-3.582,8-8H47C47,83.418,50.582,87,55,87z"/></g></g></symbol>
<symbol viewBox="0 0 110 110" id="Bonsai"><g id="Artboard"/><g id="Multicolor"><circle style="fill:#FABC3D;" cx="55" cy="55" r="55"/><g><g><path style="fill:#F0F1F1;" d="M79,71c0,1.38-0.26,2.72-0.76,4C75.58,81.9,66.18,87,55,87s-20.58-5.1-23.24-12
				c-0.5-1.28-0.76-2.62-0.76-4H79z"/></g><g><path style="fill:#FFFFFF;" d="M31,71c0,1.38,0.26,2.72,0.76,4C34.42,81.9,43.82,87,55,87V71H31z"/></g><g><path style="fill:#099686;" d="M85.209,38.804c3.994-5.28-6.898-14.919-19.094-10.28C61.568,25.19,57.555,23,52.054,23
				c-7.869,0-14.616,4.799-17.479,11.629c-1.924-0.251-4.346,1.462-4.346,4.109c0,0.006,0.001,0.011,0.001,0.016
				C26.28,38.569,23,40.486,23,42.869c0,3.96,8.213,5.639,12.077,2.476C37.196,46.369,40.022,47,43.138,47
				c5.646,0,10.362-2.057,11.568-4.812C56.413,44.99,60.985,47,66.374,47c2.879,0,6.138-0.628,8.648-2.056
				C80.883,50.034,88.984,45.008,85.209,38.804z"/></g><g><path style="fill:#099686;" d="M76.804,56.143C73.739,55.52,71,57.091,71,59c0,1.93,2.771,3.474,5.804,2.857
				C80.584,64.325,87,62.535,87,59C87,55.465,80.583,53.676,76.804,56.143z"/></g><g><path style="fill:#84462D;" d="M71.041,59.392L63,61c3.392-2.261,6.544-4.522,8.237-6.784c0.5-0.667,0.533-1.575,0.084-2.277
				l-1.987-3.105c-0.212-0.53-0.187-1.126,0.068-1.637l0.241-0.482C68.597,46.885,67.513,47,66.374,47
				c-1.704,0-3.325-0.202-4.8-0.565c0.488,1.125,1.88,2.96,1.426,3.565c-0.531,0.708-7.881-0.458-11.286-4.922
				c-0.953,0.521-2.076,0.956-3.326,1.278C50.271,51.201,57.168,52.385,59,53c2.018,0.678-2.075,3.163-7.124,6.748
				c-0.608,0.432-1.408,0.49-2.072,0.15c-0.794-0.407-1.451-0.813-1.997-1.22c-0.719,0.642-1.689,1.217-2.83,1.668
				c0.708,0.801,1.668,1.702,2.676,2.553C44.598,65.332,41.696,68.08,40,71h20c0-6.416,8.998-8.971,12.564-9.732
				C71.75,60.797,71.188,60.136,71.041,59.392z"/></g><g><path style="fill:#099686;" d="M49.145,55.805c-0.367-2.04-3.637-3.184-7.474-2.698c-4.403-2.24-11.655-0.882-12.573,2.276
				C26.668,55.962,25,57.139,25,58.5c0,1.933,3.358,3.5,7.5,3.5c1.939,0,3.7-0.346,5.031-0.91c1.375,0.296,3.042,0.323,4.797,0.007
				C46.484,60.349,49.537,57.979,49.145,55.805z"/></g><g><path style="fill:#E2E4E5;" d="M79,71c0,1.38-0.26,2.72-0.76,4H31.76c-0.5-1.28-0.76-2.62-0.76-4H79z"/></g><g><path style="fill:#12B2A0;" d="M66.115,28.523C61.568,25.189,57.555,23,52.054,23c-7.869,0-14.616,4.799-17.479,11.629
				c-1.924-0.251-4.346,1.461-4.346,4.109c0,0.006,0.001,0.011,0.001,0.016C26.28,38.569,23,40.486,23,42.869
				c0,3.959,8.213,5.639,12.077,2.476c0.527,0.255,1.099,0.486,1.708,0.688l31.448-18.157
				C67.519,28.048,66.811,28.259,66.115,28.523z"/></g><g><path style="fill:#F0F1F1;" d="M55,71H31c0,1.38,0.26,2.72,0.76,4H55V71z"/></g></g></g></symbol>
<symbol viewBox="0 0 110 110" id="Boss-2"><g id="Artboard"/><g id="Multicolor"><g><circle style="fill:#32BEA6;" cx="55" cy="55" r="55"/></g><g><g><polygon style="fill:#F1F2F2;" points="55,87 43,67.997 67,67.997 			"/></g><path style="fill:#F7B4B4;" d="M57.655,68H55h-2.655c-0.856,0-1.671-0.365-2.24-1.004L45,63v4.497c0,0,0,7.5,10,7.5s10-7.5,10-7.5
			V63l-5.105,3.996C59.326,67.635,58.511,68,57.655,68z"/><path style="fill:#FBC8C8;" d="M50.105,66.996L45,63v4.497c0,0,0,7.5,10,7.5V68h-2.655C51.489,68,50.674,67.635,50.105,66.996z"/><g><polygon style="fill:#FFFFFF;" points="43,67.997 45,66.997 54.985,71.978 49,77.997 			"/></g><g><polygon style="fill:#FFFFFF;" points="67,67.997 65,66.997 55.015,71.978 61,77.997 			"/></g><g><polygon style="fill:#DF2C2C;" points="59,87 56.201,76.8 58,75.002 54.981,71.978 51.983,74.976 53.801,76.793 51,87 			"/></g><g><polygon style="fill:#FA5655;" points="55,87 55,71.997 54.981,71.978 51.983,74.976 53.801,76.793 51,87 			"/></g><g><path style="fill:#FFFFFF;" d="M23,87l4-11c0.615-1.333,1.698-2.394,3.043-2.983L43,68l12,19H23z"/></g><g><path style="fill:#FFFFFF;" d="M87,87l-4-11c-0.615-1.333-1.698-2.394-3.043-2.983L67,68L55,87H87z"/></g><path style="fill:#FBC8C8;" d="M70,45c-1,0-1,1.111-1,1.111V46h-1v-7.902C65.643,40.306,61.912,42,56,42
			c-9.201,0-13.313-5.068-13.913-5.88c-0.029,0.076-0.06,0.151-0.087,0.228V46h-1v6.997l4,10l5.105,3.996
			c0.569,0.639,1.384,1.004,2.24,1.004H55h2.655c0.856,0,1.671-0.365,2.24-1.004L65,62.997l3.207-8.017
			C71.042,54.776,72,50.476,72,47.222C72,46.111,71,45,70,45z"/><path style="fill:#FBD7D7;" d="M42,36c-0.029,0.076,0.028,0.274,0,0.351v9.652h-1c0,0,0.017,0.071-0.065-0.277
			c-0.095-0.321-0.332-0.723-0.935-0.723c-1,0-2,1.111-2,2.222c0,3.253,0.958,7.554,3.793,7.758L45,63l5.105,3.996
			C50.674,67.635,51.489,68,52.345,68H55V41.966C46.511,41.61,42.577,36.781,42,36z"/><g><polygon style="fill:#F3B607;" points="33,87 55,87 43,68 33,71.872 			"/></g><g><polygon style="fill:#F3B607;" points="77,87 55,87 67,68 77,71.872 			"/></g><g><g><polygon style="fill:#FACB1B;" points="37,70.323 37,87 40,87 40,69.162 				"/></g><g><polygon style="fill:#FACB1B;" points="47,74.333 44,69.583 44,87 47,87 				"/></g></g><g><g><polygon style="fill:#FACB1B;" points="73,70.323 73,87 70,87 70,69.162 				"/></g><g><polygon style="fill:#FACB1B;" points="63,74.333 66,69.583 66,87 63,87 				"/></g></g><g><path style="fill:#F79392;" d="M50,56.997h10c0,0,0,3-5,3S50,56.997,50,56.997z"/></g><path style="fill:#3E3E3F;" d="M69.426,36.491C72.321,32.572,72,28,72,28H55h-6.866c-2.58,0-5.038,1.099-6.759,3.021
			c-1.721,1.922-2.542,4.486-2.256,7.051L41,46h1V36c0,0,4,6,14,6c5.912,0,9.643-1.694,12-3.902V46h1l1.272-7.09
			c0.175-0.699,0.018-1.441-0.426-2.009C69.724,36.744,69.581,36.61,69.426,36.491z"/><g><path style="fill:#3E3E3F;" d="M61.934,43.467H48.067c-1.192,0-6.067,0.379-6.067,3.467C42,50.021,43.246,53,46.333,53
				c2.851,0,6.583-2.384,6.902-6.385c0.432-0.338,1.054-0.548,1.764-0.548c0.002,0,0.003,0,0.005,0
				c0.709,0.001,1.332,0.212,1.761,0.551c0.32,4,4.052,6.383,6.902,6.383C66.754,53,68,50.021,68,46.934
				C68,43.846,63.125,43.467,61.934,43.467z M53.215,45.608c-0.126-0.558-0.484-0.97-0.96-1.275h5.49
				c-0.473,0.303-0.828,0.711-0.957,1.263c-0.508-0.253-1.118-0.396-1.784-0.396C54.337,45.218,53.725,45.36,53.215,45.608z"/><g><g><path style="fill:#5B5C5F;" d="M51.533,45.532c-1.008-0.306-2.228-0.332-2.764-0.332c-0.989,0-5.036,0.273-5.036,2.498
						c0,1.387,0.402,2.744,1.327,3.569L51.533,45.532z"/></g></g><g><g><path style="fill:#5B5C5F;" d="M58.467,45.532c1.008-0.306,2.228-0.332,2.764-0.332c0.989,0,5.036,0.273,5.036,2.498
						c0,1.387-0.402,2.744-1.327,3.569L58.467,45.532z"/></g></g></g><g><g><path style="fill:#692E19;" d="M75.556,58.894c-2.4-0.48-17.65-3.528-18.238-0.587c-0.588,2.942,15.003,6.059,17.553,6.568
					c1.354,0.271,2.715-0.827,3.04-2.452C78.551,59.221,75.556,58.894,75.556,58.894z"/></g><g><ellipse transform="matrix(0.9806 0.196 -0.196 0.9806 13.6332 -13.6844)" style="fill:#FA5655;" cx="75.949" cy="62.032" rx="2" ry="3"/></g></g></g></g></symbol>
<symbol viewBox="0 0 110 110" id="Boss-3"><g id="Artboard"/><g id="Multicolor"><g><circle style="fill:#FABC3D;" cx="55" cy="55" r="55"/></g><g><g><polygon style="fill:#F1F2F2;" points="55,87 43,67.997 67,67.997 			"/></g><g><path style="fill:#F7B4B4;" d="M59,68.031h-4h-4l-6-3.752v3.218c0,0,0,7.5,10,7.5s10-7.5,10-7.5v-3.219L59,68.031z"/></g><path style="fill:#FBC8C8;" d="M72,47.222C72,46.111,71,45,70,45s-1,1.111-1,1.111V45c-0.018-9-1.024-15-14-15s-13.982,6-14,15
			v7.997l4,10l5.105,3.996c0.569,0.639,1.384,1.004,2.24,1.004H55h2.655c0.856,0,1.671-0.365,2.24-1.004L65,62.997l3.207-8.017
			C71.042,54.776,72,50.476,72,47.222z"/><path style="fill:#FBD7D7;" d="M41,45v1.111c0,0,0-1.111-1-1.111s-2,1.111-2,2.222c0,3.253,0.958,7.554,3.793,7.758L45,62.997
			l5.105,3.996c0.569,0.639,1.384,1.004,2.24,1.004H55V30C42.024,30,41.018,36,41,45z"/><g><polygon style="fill:#FBC8C8;" points="48,60.031 48.011,59.997 46.982,59.997 47,60.031 			"/><path style="fill:#FBC8C8;" d="M55,68.031h-4l-6-3.752v3.218c0,0,0,7.5,10,7.5L55,68.031L55,68.031z"/></g><path style="fill:#692E19;" d="M67.807,34.274c0.098-0.417,0.146-0.84,0.146-1.262c0-2.842-0.908-4.783-12.953-4.972v-0.024
			C54.366,28.006,53.711,28,53.015,28c-12.511,0-13.042,7.98-13.014,9.679c0.003,0.203,0.014,0.322,0.014,0.322s0,5.02,0,7.016
			c0,0.004,0,0.01,0,0.014c0,0,1,2,2,4v7l0.984,6.997l8,5.003h4l0,0h4l8-5.003l0.984-6.997v-7h0.031l2-4V40
			C70.015,38.023,69.275,36.055,67.807,34.274z M62.999,60.031h-1l-2-6h-5l0,0h-5l-2,6h-1l-3-6V37.673
			c3.339,2.246,6.812,2.372,11,2.354v-0.003c2.604-0.012,7.892,0.031,11-2.787v16.792L62.999,60.031z"/><path style="fill:#84462D;" d="M55,40.028V28.016C54.367,28.006,53.712,28,53.016,28c-14,0-13,10-13,10s0,5.031,0,7.031
			c0,0,1,2,2,4v7L43,63.028l8,5.003h4v-14h-5l-2,6h-1l-3-6V37.665C46.189,39.137,47.936,40.055,55,40.028z"/><g><path style="fill:#3E3E3F;" d="M52,46.997c0-1.104-0.896-2-2-2c-0.002,0-0.004,0-0.006,0C49.995,45.019,50,45.039,50,45.06
				c0,1.103-0.892,1.996-1.994,2c0.033,1.075,0.91,1.938,1.994,1.938C51.104,48.997,52,48.102,52,46.997z"/></g><g><path style="fill:#3E3E3F;" d="M61.994,46.997c0-1.104-0.896-2-2-2c-0.002,0-0.004,0-0.006,0
				c0.001,0.021,0.006,0.041,0.006,0.062c0,1.103-0.892,1.996-1.994,2c0.033,1.075,0.91,1.938,1.994,1.938
				C61.098,48.997,61.994,48.102,61.994,46.997z"/></g><g><polygon style="fill:#FFFFFF;" points="43,67.997 45,66.997 54.985,71.978 49,77.997 			"/></g><g><polygon style="fill:#FFFFFF;" points="67,67.997 65,66.997 55.015,71.978 61,77.997 			"/></g><g><polygon style="fill:#099686;" points="59,87 56.201,76.8 58,75.002 54.981,71.978 51.983,74.976 53.801,76.793 51,87 			"/></g><g><polygon style="fill:#12B2A0;" points="55,87 55,71.997 54.981,71.978 51.983,74.976 53.801,76.793 51,87 			"/></g><g><path style="fill:#3E3E3F;" d="M23,87l4-11c0.615-1.333,1.698-2.394,3.043-2.983L43,68l12,19H23z"/></g><g><path style="fill:#3E3E3F;" d="M87,87l-4-11c-0.615-1.333-1.698-2.394-3.043-2.983L67,68L55,87H87z"/></g><g><rect x="66" y="79.997" style="fill:#FFFFFF;" width="10" height="2"/></g><g><path style="fill:#FBC8C8;" d="M51,56.997h8c0,0,0,4.003-4,4.003S51,56.997,51,56.997z"/></g></g></g></symbol>
<symbol viewBox="0 0 110 110" id="Boss-5"><g id="Artboard"/><g id="Multicolor"><g><circle style="fill:#32BEA6;" cx="55" cy="55" r="55"/></g><g><path style="fill:#692E19;" d="M55,24c-4.596,0-8.126,0.638-10.853,1.614c-2.768,0.991-4.703,2.331-6.047,3.723
			C35.005,32.542,35,36,35,36l2,38h12V39.173c3.438,1.309,7.875,2.027,12,2.415V74h12l2-38C75,36,75,24,55,24z"/><path style="fill:#84462D;" d="M55,24c-4.596,0-8.126,0.638-10.853,1.614c-2.768,0.991-4.703,2.331-6.047,3.723
			C35.005,32.542,35,36,35,36l2,38h12V39.173c1.791,0.682,3.854,1.2,6,1.598V24z"/><g><path style="fill:#3E3E3F;" d="M55,70l-7-1l-16.241,3.872c-2.371,0.711-4.279,2.48-5.168,4.791L23,87h32V70z"/></g><g><path style="fill:#3E3E3F;" d="M55,70l7-1l16.241,3.872c2.371,0.711,4.279,2.48,5.168,4.791L87,87H55V70z"/></g><path style="fill:#FBC8C8;" d="M45,61.433V75l8,12h2V69C51.716,67.905,47.841,65.829,45,61.433z"/><path style="fill:#F7B4B4;" d="M55,69v18h2l8-12V61.433C62.159,65.829,58.284,67.905,55,69z"/><path style="fill:#FBC8C8;" d="M70,45c-0.277,0-0.633,0-1,0c0-0.007,0-0.014,0-0.021c-0.002-1.006-0.018-1.998-0.06-2.968
			c-8.076-0.134-25.427-1.291-25.91-8.7c-1.771,3.1-2.021,7.258-2.03,11.668c0,0.007,0,0.014,0,0.021c-0.368,0-0.723,0-1,0
			c-1,0-2,1.111-2,2.222c0,3.091,0.864,7.13,4.178,7.703C44.62,64.027,50.396,67.465,55,69c4.604-1.535,10.38-4.973,12.822-14.075
			C71.136,54.353,72,50.313,72,47.222C72,46.111,71,45,70,45z"/><path style="fill:#FBD7D7;" d="M43.03,33.311c-1.771,3.1-2.021,7.258-2.03,11.668c0,0.007,0,0.014,0,0.021c-0.368,0-0.723,0-1,0
			c-1,0-2,1.111-2,2.222c0,3.091,0.864,7.13,4.178,7.703C44.62,64.027,50.396,67.465,55,69V40.774
			C48.782,39.624,43.299,37.434,43.03,33.311z"/><g><path style="fill:#F79392;" d="M50,58h10c0,0,0,3-5,3S50,58,50,58z"/></g><g><polygon style="fill:#FFFFFF;" points="44.989,64 47,75 55,87 53,87 40,79 44,74 35,72 			"/></g><g><polygon style="fill:#FFFFFF;" points="65.011,64 63,75 55,87 57,87 70,79 66,74 75,72 			"/></g><g><path style="fill:#3E3E3F;" d="M52,47c0-1.104-0.896-2-2-2c-0.002,0-0.004,0-0.006,0C49.995,45.021,50,45.042,50,45.063
				c0,1.103-0.892,1.996-1.994,2C48.04,48.137,48.917,49,50,49C51.104,49,52,48.104,52,47z"/></g><g><path style="fill:#3E3E3F;" d="M61.994,47c0-1.104-0.896-2-2-2c-0.002,0-0.004,0-0.006,0c0.001,0.021,0.006,0.041,0.006,0.062
				c0,1.103-0.892,1.996-1.994,2C58.033,48.137,58.91,49,59.994,49C61.098,49,61.994,48.104,61.994,47z"/></g><g><circle style="fill:#FBE158;" cx="70.347" cy="56.371" r="1.629"/></g><g><circle style="fill:#FBE158;" cx="39.371" cy="56.371" r="1.629"/></g></g></g></symbol>
<symbol viewBox="0 0 110 110" id="Burglar"><g id="Artboard"/><g id="Multicolor"><g><circle style="fill:#25B7D3;" cx="55" cy="55" r="55"/></g><g><path style="fill:#FBC8C8;" d="M70,47c-1,0-1,1.111-1,1.111v-1.108c0-0.012,0-0.024,0-0.037C66.129,47.357,60.568,48,55,48
			c-1,0-2-0.021-2.984-0.057c-4.5-0.166-8.661-0.656-11.016-0.977c0,0.012,0,0.024,0,0.037V55l4,10l5.105,3.996
			C50.674,69.635,51.489,70,52.345,70H55h2.655c0.856,0,1.671-0.365,2.24-1.004L65,65l3.208-8.02C71.042,56.775,72,52.475,72,49.222
			C72,48.111,71,47,70,47z"/><path style="fill:#FBD7D7;" d="M41,46.966c0,0.012,0,0.024,0,0.037v1.111c0,0,0-1.111-1-1.111s-2,1.111-2,2.222
			c0,3.253,0.958,7.554,3.793,7.758L45,65l5.105,3.996C50.674,69.635,51.489,70,52.345,70H55V48c-1,0-2-0.021-2.984-0.057
			C47.516,47.777,43.354,47.287,41,46.966z"/><path style="fill:#3E3E3F;" d="M83,76c-0.615-1.333-1.698-2.394-3.043-2.982L65,69v-4l-5.105,3.996
			C59.326,69.635,58.511,70,57.655,70H55h-2.655c-0.856,0-1.671-0.365-2.24-1.004L45,65v4l-14.957,4.018
			C28.698,73.606,27.615,74.667,27,76l-4,11h32h32L83,76z"/><g><path style="fill:#3E3E3F;" d="M55,46c-11.429,0-16-2-16-2v3c0,0,1.143,7,9.143,7C51.32,54,55,51,55,50c0,1,3.68,4,6.857,4
				c8,0,9.143-7,9.143-7v-3C71,44,66.429,46,55,46z"/></g><g><path style="fill:#FFFFFF;" d="M52,49c0,0.732-1.343,1.955-3,1.968c-3,0.022-4-1.235-4-1.968C47,49,50,49,52,49z"/></g><g><path style="fill:#FFFFFF;" d="M58,49c0,0.732,1.343,1.955,3,1.967c3,0.022,4-1.235,4-1.967C63,49,60,49,58,49z"/></g><path style="fill:#3E3E3F;" d="M71,40.033c0,0-0.375,0.083-1.094,0.207C69.026,27.857,62.014,26,55,26
			s-14.026,1.857-14.906,14.241c-0.288-0.05-0.818-0.146-1.094-0.208c-0.55,0-1.05,0.299-1.413,0.78
			C37.225,41.294,37,41.958,37,42.688v0v1.328c0,1.46,0.9,2.656,2,2.656c0,0,6.125,1.017,13.016,1.271C53,47.979,54,48,55,48
			c8,0,16-1.328,16-1.328c1.1,0,2-1.195,2-2.656v-1.328C73,41.228,72.1,40.033,71,40.033z"/><path style="fill:#5B5C5F;" d="M40.094,40.241C39.375,40.116,39,40.033,39,40.033c-1.1,0-2,1.195-2,2.655v1.328
			c0,1.46,0.9,2.656,2,2.656c0,0,8,1.328,16,1.328V26C47.986,26,40.974,27.857,40.094,40.241z"/><g><path style="fill:#3E3E3F;" d="M61.996,61c-0.088-2.437,0.462-5-7-5s-6.912,2.563-7,5c-0.126,3.507,3,5,7,8
				C58.996,66,62.123,64.507,61.996,61z M54.996,64c-4.996,0.029-4.824-4.96-4.992-5h9.992C59.829,59.04,59.992,64.029,54.996,64z"/></g></g></g></symbol>
<symbol viewBox="0 0 110 110" id="Bus"><g id="Artboard"/><g id="Multicolor"><circle style="fill:#FABC3D;" cx="55" cy="55" r="55"/><g><g><path style="fill:#DF2C2C;" d="M79,31c0-4.418-3.582-8-8-8H39c-4.418,0-8,3.582-8,8v50c0,1.105,0.895,2,2,2h44
				c1.105,0,2-0.895,2-2V31z"/></g><g><path style="fill:#FA5655;" d="M76.198,24.926C74.799,23.728,72.986,23,71,23H39c-4.418,0-8,3.582-8,8v39.124L76.198,24.926z"/></g><g><path style="fill:#3E3E3F;" d="M31,83v2c0,1.104,0.896,2,2,2h8c1.104,0,2-0.896,2-2v-2H31z"/></g><g><path style="fill:#3E3E3F;" d="M67,85c0,1.104,0.896,2,2,2h8c1.104,0,2-0.896,2-2v-2H67V85z"/></g><g><path style="fill:#FA5655;" d="M81,74c0-2.209-1.791-4-4-4h-9l-2.447-2.894C65.214,66.428,64.521,66,63.764,66H46.236
				c-0.758,0-1.45,0.428-1.789,1.106L42,70h-9c-2.209,0-4,1.791-4,4v7c0,1.105,0.895,2,2,2h48c1.105,0,2-0.895,2-2V74z"/></g><g><path style="fill:#BF0302;" d="M54,69h-7c-1.104,0-2,0.896-2,2v7c0,1.104,0.896,2,2,2h7V69z"/></g><g><path style="fill:#BF0302;" d="M56,69h7c1.104,0,2,0.896,2,2v7c0,1.104-0.896,2-2,2h-7V69z"/></g><g><circle style="fill:#FBE158;" cx="37" cy="77" r="3"/></g><g><circle style="fill:#FBE158;" cx="72" cy="77" r="3"/></g><g><rect x="31" y="47" style="fill:#E2E4E5;" width="48" height="2"/></g><g><polygon style="fill:#FFFFFF;" points="54.124,47 31,47 31,49 52.124,49 			"/></g><g><path style="fill:#40C9E7;" d="M75,49H57v12c0,1.105,0.895,2,2,2h14c1.105,0,2-0.895,2-2V49z"/></g><g><path style="fill:#6FDAF1;" d="M35,37c0,1.105,0.895,2,2,2h14c1.105,0,2-0.895,2-2v-8c0-1.105-0.895-2-2-2H37
				c-1.105,0-2,0.895-2,2V37z"/></g><g><path style="fill:#40C9E7;" d="M57,37c0,1.105,0.895,2,2,2h14c1.105,0,2-0.895,2-2v-8c0-1.105-0.895-2-2-2H59
				c-1.105,0-2,0.895-2,2V37z"/></g><g><path style="fill:#6FDAF1;" d="M73,27H59c-1.104,0-2,0.896-2,2v8c0,1.104,0.896,2,2,2h3.124L73.9,27.223
				C73.628,27.085,73.326,27,73,27z"/></g><g><path style="fill:#FBEC9A;" d="M72,74.044c-1.657,0-3,1.343-3,3c0,0.751,0.286,1.43,0.742,1.956l4.214-4.214
				C73.43,74.33,72.751,74.044,72,74.044z"/></g><g><path style="fill:#FBEC9A;" d="M37,74c-1.657,0-3,1.343-3,3c0,0.751,0.286,1.43,0.742,1.956l4.214-4.214
				C38.43,74.286,37.751,74,37,74z"/></g><rect x="35" y="49" style="fill:#40C9E7;" width="18" height="8"/><path style="fill:#40C9E7;" d="M35,61c0,1.104,0.896,2,2,2h14c1.104,0,2-0.896,2-2v-2H35V61z"/><polygon style="fill:#6FDAF1;" points="44.124,57 52.124,49 35,49 35,57 		"/><path style="fill:#6FDAF1;" d="M35,59v2c0,1.104,0.896,2,2,2h1.124l4-4H35z"/></g></g></symbol>
<symbol viewBox="0 0 110 110" id="Businesswoman-1"><g id="Artboard"/><g id="Multicolor"><g><circle style="fill:#32BEA6;" cx="55" cy="55" r="55"/></g><g><g><g><path style="fill:#0484AB;" d="M55,70l-7-1l-16.241,3.872c-2.371,0.711-4.279,2.48-5.168,4.791L23,87h32V70z"/></g><g><path style="fill:#0484AB;" d="M55,70l7-1l16.241,3.872c2.371,0.711,4.279,2.48,5.168,4.791L87,87H55V70z"/></g></g><path style="fill:#F4D0A1;" d="M55,68.371c-3.284-1.094-7.159-3.171-10-7.568v13.586c0,1.725,0.329,3.434,0.97,5.035L49,87h12
			l3.03-7.576c0.641-1.601,0.97-3.31,0.97-5.035V60.803C62.159,65.2,58.284,67.277,55,68.371z"/><path style="fill:#F8E1C2;" d="M45,60.803v13.586c0,1.725,0.329,3.434,0.97,5.035L49,87h6V68.371
			C51.716,67.277,47.841,65.2,45,60.803z"/><g><path style="fill:#FFFFFF;" d="M54.977,83c-2.887,0-5.605-0.387-8.023-1.058L48.977,87h12L63,81.942
				C60.582,82.613,57.863,83,54.977,83z"/></g><g><path style="fill:#21B2D1;" d="M43,87h6l-3.03-7.576c-0.641-1.601-0.97-3.31-0.97-5.035V67c-2,2-4,4-6,7l4,2l-5,5L43,87z"/></g><g><path style="fill:#21B2D1;" d="M67,87h-6l3.03-7.576c0.641-1.601,0.97-3.31,0.97-5.035V67c2,2,4,4,6,7l-4,2l5,5L67,87z"/></g><g><g><path style="fill:#FFFFFF;" d="M42,85c0,0.55-0.45,1-1,1H30c-0.55,0-1-0.45-1-1v-7c0-0.55,0.45-1,1-1h11c0.55,0,1,0.45,1,1V85z"/></g><g><rect x="30" y="80" style="fill:#9CE5F4;" width="4" height="5"/></g><path style="fill:#9CE5F4;" d="M41,77h-4v-0.5c0-0.825-0.675-1.5-1.5-1.5S34,75.675,34,76.5V77h-4c-0.55,0-1,0.45-1,1v1h13v-1
				C42,77.45,41.55,77,41,77z"/></g><path style="fill:#F8E1C2;" d="M70,44.371c-0.277,0-0.633,0-1,0c0-0.007,0-0.014,0-0.021c-0.018-9.008-1.024-16.979-14-16.979
			S41.018,35.342,41,44.35c0,0.007,0,0.014,0,0.021c-0.368,0-0.723,0-1,0c-1,0-2,1.111-2,2.222c0,3.091,0.864,7.13,4.178,7.703
			C44.62,63.398,50.396,66.837,55,68.371c4.604-1.534,10.38-4.973,12.822-14.075C71.136,53.724,72,49.684,72,46.593
			C72,45.482,71,44.371,70,44.371z"/><path style="fill:#FCF1E2;" d="M41,44.35c0,0.007,0,0.014,0,0.021c-0.368,0-0.723,0-1,0c-1,0-2,1.111-2,2.222
			c0,3.091,0.864,7.13,4.178,7.703C44.62,63.398,50.396,66.837,55,68.371v-41C42.024,27.371,41.018,35.342,41,44.35z"/><g><g><path style="fill:#3E3E3F;" d="M48.964,45.866c1.43,0,2.627,0.277,2.959,1.134c0.004-1-1.003-2.446-2.959-2.446
					c-1.953,0-3.053,1.446-2.959,2.446C46.337,46.144,47.534,45.866,48.964,45.866z"/></g></g><g><g><path style="fill:#3E3E3F;" d="M60.887,45.866c1.43,0,2.627,0.277,2.959,1.134c0.004-1-1.003-2.446-2.959-2.446
					c-1.953,0-3.053,1.446-2.959,2.446C58.26,46.144,59.457,45.866,60.887,45.866z"/></g></g><g><path style="fill:#3E3E3F;" d="M65,61c11,5,8.074,17.046,14,26c-13-6-14-12-14-20C65,67,65,62,65,61z"/></g><path style="fill:#3E3E3F;" d="M50.084,27.346C49.81,27.17,49.458,27.042,49,27c-11-1-11.931,13.548-8.006,17.606
			c1.79-0.541,8.368-5.803,9.735-11.803C54.228,39.733,69.254,45.09,69,45C79.845,26.302,51.823,19.426,50.084,27.346z"/><g><path style="fill:#F79392;" d="M50,57.371h10c0,0,0,3-5,3S50,57.371,50,57.371z"/></g></g></g></symbol>
<symbol viewBox="0 0 110 110" id="Camera-Front"><g id="Artboard"/><g id="Multicolor"><circle style="fill:#FABC3D;" cx="55" cy="55" r="55"/><g><path style="fill:#F0F1F1;" d="M87,81c0,1.105-0.895,2-2,2H25c-1.105,0-2-0.895-2-2V41c0-1.105,0.895-2,2-2h22l0-2
			c0-1.105,0.895-2,2-2h36c1.105,0,2,0.895,2,2V81z"/><path style="fill:#FFFFFF;" d="M49,35c-1.104,0-2,0.896-2,2v2H25c-1.104,0-2,0.896-2,2v40c0,0.315,0.079,0.609,0.209,0.874
			L70.083,35H49z"/><path style="fill:#FFFFFF;" d="M41,39H27v-3c0-0.552,0.448-1,1-1h12c0.552,0,1,0.448,1,1V39z"/><path style="fill:#40C9E7;" d="M83,46c0,0.552-0.448,1-1,1H72c-0.552,0-1-0.448-1-1v-6c0-0.552,0.448-1,1-1h10
			c0.552,0,1,0.448,1,1V46z"/><circle style="fill:#5B5C5F;" cx="33" cy="45" r="2"/><rect x="29" y="35" style="fill:#E2E4E5;" width="2" height="4"/><rect x="33" y="35" style="fill:#E2E4E5;" width="2" height="4"/><rect x="37" y="35" style="fill:#E2E4E5;" width="2" height="4"/><rect x="23" y="51" style="fill:#3E3E3F;" width="64" height="28"/><polygon style="fill:#5B5C5F;" points="23,51 23,79 26.083,79 54.083,51 		"/><circle style="fill:#FFFFFF;" cx="59" cy="63" r="16"/><circle style="fill:#21B2D1;" cx="59" cy="63" r="12"/><path style="fill:#40C9E7;" d="M59,51c-6.627,0-12,5.373-12,12c0,3.338,1.365,6.355,3.564,8.531l16.966-16.966
			C65.355,52.365,62.338,51,59,51z"/><path style="fill:#818284;" d="M39,69c0,1.105-0.895,2-2,2s-2-0.895-2-2v-4c0-1.105,0.895-2,2-2s2,0.895,2,2V69z"/></g></g></symbol>
<symbol viewBox="0 0 110 110" id="Candles"><g id="Artboard"/><g id="Multicolor"><circle style="fill:#E04F5F;" cx="55" cy="55" r="55"/><g><g><path style="fill:#F3B607;" d="M83,85c0,1.105-0.895,2-2,2H61c-1.105,0-2-0.895-2-2V41c0-1.105,0.895-2,2-2h20
				c1.105,0,2,0.895,2,2V85z"/></g><g><path style="fill:#FACB1B;" d="M71.001,39H61c-1.105,0-2,0.896-2,2v44c0,1.104,0.895,2,2,2h10V39z"/></g><g><path style="fill:#FBE158;" d="M62,58.5c0,2.485,2.015,4.5,4.5,4.5s4.5-2.015,4.5-4.5v-10c0-0.828,0.672-1.5,1.5-1.5
				s1.5,0.672,1.5,1.5v4c0,1.381,1.119,2.5,2.5,2.5s2.5-1.119,2.5-2.5V39H61c-1.104,0-2,0.896-2,2v15h3V58.5z"/></g><g><path style="fill:#FBEC9A;" d="M71.001,39H61c-1.104,0-2,0.896-2,2v15h3v2.5c0,2.485,2.015,4.5,4.5,4.5s4.5-2.015,4.5-4.5v-10
				c0-0.002,0-0.004,0-0.006V39z"/></g><g><path style="fill:#059BBF;" d="M43,57c0-1.105,0.895-2,2-2h16c1.105,0,2,0.895,2,2v28c0,1.105-0.895,2-2,2H45
				c-1.105,0-2-0.895-2-2V57z"/></g><g><path style="fill:#21B2D1;" d="M53.001,55h-8c-1.105,0-2,0.896-2,2v28c0,1.104,0.895,2,2,2h8V55z"/></g><g><path style="fill:#40C9E7;" d="M51,61c0-1.104,0.896-2,2-2s2,0.896,2,2s0.896,2,2,2s2-0.896,2-2v-6H45c-1.104,0-2,0.896-2,2v13h8
				V61z"/></g><g><path style="fill:#FBE158;" d="M77.429,33.286c0,3.156-2.558,5.714-5.714,5.714s-5.714-2.558-5.714-5.714
				c0-3.429,4.571-5.714,3.429-10.286C76.287,25.286,77.429,30.13,77.429,33.286z"/></g><g><path style="fill:#F37A10;" d="M74.572,36.143c0,1.578-1.279,2.857-2.857,2.857s-2.857-1.279-2.857-2.857
				c0-1.714,2.286-2.857,1.714-5.143C74.001,32.143,74.572,34.565,74.572,36.143z"/></g><g><path style="fill:#FBE158;" d="M56.001,51c0,2.209-1.791,4-4,4s-4-1.791-4-4c0-2.4,3.2-4,2.4-7.201
				C55.201,45.399,56.001,48.79,56.001,51z"/></g><g><path style="fill:#F37A10;" d="M54.001,53c0,1.105-0.896,2-2,2s-2-0.896-2-2c0-1.2,1.6-2,1.2-3.6
				C53.601,50.2,54.001,51.895,54.001,53z"/></g><g><path style="fill:#6FDAF1;" d="M53,55h-8c-1.104,0-2,0.896-2,2v14h8V61c0-1.104,0.896-2,2-2h0V55z"/></g><g><g><path style="fill:#F0F1F1;" d="M50.688,70.17c-1.035-2.236-3.907-3.192-6.908-2.513c-0.478-3.32-2.665-5.829-5.294-5.829
					c-2.693,0-4.919,2.634-5.322,6.074c-3.301-1.094-6.644-0.183-7.779,2.269c-1.199,2.591,0.508,5.949,3.824,7.693
					c-1.989,2.758-2.147,6.134-0.215,7.958c2.213,2.089,6.299,1.337,9.042-1.737c2.755,3.087,6.839,3.816,9.042,1.737
					c1.932-1.824,1.775-5.2-0.215-7.958C50.18,76.119,51.887,72.761,50.688,70.17z"/></g><g><path style="fill:#FFFFFF;" d="M43.78,67.657c-0.478-3.32-2.665-5.829-5.294-5.829c-2.693,0-4.919,2.634-5.322,6.074
					c-3.301-1.094-6.644-0.183-7.779,2.269c-1.199,2.591,0.508,5.949,3.824,7.693c-1.701,2.359-2.057,5.166-0.919,7.071
					l17.479-17.48C45.125,67.445,44.457,67.504,43.78,67.657z"/></g><g><circle style="fill:#FACB1B;" cx="38.485" cy="75.313" r="5.394"/></g><g><path style="fill:#FBE158;" d="M38.485,69.919c-2.979,0-5.394,2.415-5.394,5.394c0,1.343,0.494,2.569,1.306,3.513l7.601-7.601
					C41.054,70.413,39.829,69.919,38.485,69.919z"/></g></g></g></g></symbol>
<symbol viewBox="0 0 110 110" id="Canoe"><g id="Artboard"/><g id="Multicolor"><circle style="fill:#FABC3D;" cx="55" cy="55" r="55"/><g><g><path style="fill:#059BBF;" d="M67,55c0,17.669-8.008,32-12,32c-3.99,0-12-14.328-12-32c0-17.671,8.009-32,12-32S67,37.329,67,55
				z"/></g><g><path style="fill:#FFFFFF;" d="M57,23.91v62.18c-0.73,0.6-1.41,0.91-2,0.91c-0.59,0-1.27-0.31-2-0.91V23.91
				c0.73-0.6,1.41-0.91,2-0.91C55.59,23,56.27,23.31,57,23.91z"/></g><g><path style="fill:#3E3E3F;" d="M55,51c-4.808,0-8.143,14.963-5.214,18.536C50.546,70.463,51.681,71,52.879,71h4.242
				c1.198,0,2.334-0.537,3.093-1.464C63.078,66.042,59.852,51,55,51z"/></g><g><path style="fill:#E2E4E5;" d="M72.497,39.971l4.95,0.707l9.192-9.192c-0.471-4.243-4.243-8.014-8.485-8.485l-9.192,9.192
				l0.707,4.95L37.142,69.669l-4.95-0.707L23,78.154c0.472,4.243,4.243,8.014,8.485,8.485l9.192-9.192l-0.707-4.95L72.497,39.971z"/></g><g><path style="fill:#FFFFFF;" d="M78.154,23l-9.192,9.192l0.707,4.95L37.142,69.669l-4.95-0.707L23,78.154
				c0.237,2.135,1.312,4.15,2.86,5.686l57.98-57.98C82.304,24.312,80.29,23.237,78.154,23z"/></g></g></g></symbol>
<symbol viewBox="0 0 110 110" id="Captain-Shield"><g id="Artboard"/><g id="Multicolor"><circle style="fill:#25B7D3;" cx="55" cy="55" r="55"/><g><g><circle style="fill:#DF2C2C;" cx="55" cy="55" r="32"/></g><g><circle style="fill:#E2E4E5;" cx="55" cy="55" r="26"/></g><g><circle style="fill:#DF2C2C;" cx="55" cy="55" r="20"/></g><g><circle style="fill:#0484AB;" cx="55" cy="55" r="14"/></g><g><polygon style="fill:#E2E4E5;" points="55,40.742 59,51 68,51 60.163,56.655 63.354,66.487 55,60.423 46.646,66.495 
				49.837,56.653 41.92,51 51,51 			"/></g><g><path style="fill:#FA5655;" d="M29,55c0-14.359,11.641-26,26-26v-6c-17.673,0-32,14.327-32,32s14.327,32,32,32v-6
				C40.641,81,29,69.359,29,55z"/></g><g><path style="fill:#FFFFFF;" d="M29,55c0,14.359,11.641,26,26,26v-6c-11.046,0-20-8.954-20-20s8.954-20,20-20v-6
				C40.641,29,29,40.641,29,55z"/></g><g><path style="fill:#FA5655;" d="M46.836,66.357l-0.19,0.138l0.073-0.225C43.257,63.721,41,59.629,41,55
				c0-7.697,6.213-13.939,13.897-13.995L55,40.742V35c-11.046,0-20,8.954-20,20s8.954,20,20,20v-6
				C51.95,69,49.136,68.013,46.836,66.357z"/></g><g><path style="fill:#059BBF;" d="M41.92,51H51l3.897-9.995C47.213,41.061,41,47.303,41,55c0,4.629,2.257,8.721,5.719,11.27
				l3.118-9.617L41.92,51z"/></g><g><path style="fill:#059BBF;" d="M46.836,66.357C49.136,68.013,51.95,69,55,69v-8.577L46.836,66.357z"/></g><g><path style="fill:#FFFFFF;" d="M55,41c-0.035,0-0.068,0.005-0.103,0.005L51,51h-9.08l7.917,5.653l-3.118,9.617
				c0.039,0.029,0.077,0.059,0.117,0.087L55,60.423V41z"/></g></g></g></symbol>
<symbol viewBox="0 0 110 110" id="Candy"><g id="Artboard" style="display:none;"><rect x="-456.5" y="-290.5" style="display:inline;fill:#808080;stroke:#000000;stroke-miterlimit:10;" width="1392" height="1369"/></g><g id="R-Multicolor"><circle style="fill:#32BEA6;" cx="55" cy="55" r="55"/><g><g><path style="fill:#F0F1F1;" d="M63,23c-2.37,0-4.66,0.34-6.82,0.99C46.25,26.93,39,36.12,39,47c0,0.25,0,0.5,0.02,0.75
				c0.139,4.604,1.581,8.878,3.962,12.476l-19.714,21.01c-0.376,0.405-0.353,1.037,0.052,1.413l4.396,4.084
				c0.405,0.376,1.037,0.353,1.413-0.052l19.328-20.598C52.492,69.165,57.531,71,63,71c13.25,0,24-10.75,24-24S76.25,23,63,23z"/></g><g><path style="fill:#FFFFFF;" d="M42.981,60.226l-19.714,21.01c-0.376,0.405-0.353,1.037,0.052,1.413l1.732,1.609l20.641-20.641
				C44.69,62.573,43.783,61.438,42.981,60.226z"/></g><g><path style="fill:#DF2C2C;" d="M87,47c0,13.25-10.75,24-24,24c-13,0-23.59-10.34-23.98-23.25C39,47.5,39,47.25,39,47
				c0-10.88,7.25-20.07,17.18-23.01C58.34,23.34,60.63,23,63,23C76.25,23,87,33.75,87,47z"/></g><g><path style="fill:#FA5655;" d="M63,23c-2.37,0-4.66,0.34-6.82,0.99C46.25,26.93,39,36.12,39,47c0,0.25,0,0.5,0.02,0.75
				c0.186,6.155,2.694,11.722,6.672,15.866l33.922-33.923C75.301,25.552,69.449,23,63,23z"/></g><g><path style="fill:#FACB1B;" d="M82.51,45.89c0,5.58-2.18,10.83-6.13,14.78c-3.34,3.35-7.79,5.19-12.52,5.19
				c-4.72,0-9.17-1.84-12.51-5.19c-2.85-2.84-4.42-6.63-4.42-10.65c0-4.03,1.57-7.81,4.42-10.66c2.44-2.44,5.68-3.78,9.13-3.78
				c3.44,0,6.69,1.34,9.13,3.78c2.342,2.351,4.892,9.253-1.486,14.879c-1.129,0.996-2.818,1.022-3.974,0.057
				c-1.001-0.836-0.952-2.388,0.091-3.161c3.371-2.5,1.998-9.555-3.761-9.555c-1.85,0-3.58,0.72-4.89,2.02
				c-1.71,1.71-2.66,3.99-2.66,6.42c0,2.42,0.95,4.7,2.66,6.41c2.21,2.21,5.15,3.43,8.27,3.43c3.13,0,6.07-1.22,8.28-3.43
				c2.81-2.82,4.37-6.56,4.37-10.54c0-3.98-1.56-7.73-4.37-10.54c-7.34-7.34-19.27-7.34-26.6,0c-3.43,3.43-5.68,7.73-6.52,12.4
				C39,47.5,39,47.25,39,47c0-10.88,7.25-20.07,17.18-23.01c7.21-0.77,14.69,1.6,20.2,7.11C80.33,35.05,82.51,40.3,82.51,45.89z"/></g><g><g><path style="fill:#FBE158;" d="M52.93,50.02c0-2.43,0.95-4.71,2.66-6.42c1.31-1.3,3.04-2.02,4.89-2.02
					c2.278,0,3.858,1.11,4.742,2.6l4.592-4.592c-0.068-0.075-0.136-0.16-0.203-0.228c-2.44-2.44-5.69-3.78-9.13-3.78
					c-3.45,0-6.69,1.34-9.13,3.78c-2.85,2.85-4.42,6.63-4.42,10.66c0,3.396,1.131,6.621,3.197,9.254l4.288-4.288
					C53.453,53.523,52.93,51.811,52.93,50.02z"/></g><g><path style="fill:#FBE158;" d="M76.38,31.1c-5.51-5.51-12.99-7.88-20.2-7.11C46.25,26.93,39,36.12,39,47c0,0.25,0,0.5,0.02,0.75
					c0.84-4.67,3.09-8.97,6.52-12.4c7.33-7.34,19.26-7.34,26.6,0c0.321,0.321,0.621,0.658,0.909,1.002l4.245-4.245
					C76.995,31.768,76.703,31.423,76.38,31.1z"/></g></g></g></g><g id="Multicolor" style="display:none;"><g style="display:inline;"><g><path style="fill:#F0F1F1;" d="M63,23c-2.37,0-4.66,0.34-6.82,0.99C46.25,26.93,39,36.12,39,47c0,0.25,0,0.5,0.02,0.75
				c0.139,4.604,1.581,8.878,3.962,12.476l-19.714,21.01c-0.376,0.405-0.353,1.037,0.052,1.413l4.396,4.084
				c0.405,0.376,1.037,0.353,1.413-0.052l19.328-20.598C52.492,69.165,57.531,71,63,71c13.25,0,24-10.75,24-24S76.25,23,63,23z"/></g><g><path style="fill:#FFFFFF;" d="M42.981,60.226l-19.714,21.01c-0.376,0.405-0.353,1.037,0.052,1.413l1.732,1.609l20.641-20.641
				C44.69,62.573,43.783,61.438,42.981,60.226z"/></g><g><path style="fill:#DF2C2C;" d="M87,47c0,13.25-10.75,24-24,24c-13,0-23.59-10.34-23.98-23.25C39,47.5,39,47.25,39,47
				c0-10.88,7.25-20.07,17.18-23.01C58.34,23.34,60.63,23,63,23C76.25,23,87,33.75,87,47z"/></g><g><path style="fill:#FA5655;" d="M63,23c-2.37,0-4.66,0.34-6.82,0.99C46.25,26.93,39,36.12,39,47c0,0.25,0,0.5,0.02,0.75
				c0.186,6.155,2.694,11.722,6.672,15.866l33.922-33.923C75.301,25.552,69.449,23,63,23z"/></g><g><path style="fill:#FACB1B;" d="M82.51,45.89c0,5.58-2.18,10.83-6.13,14.78c-3.34,3.35-7.79,5.19-12.52,5.19
				c-4.72,0-9.17-1.84-12.51-5.19c-2.85-2.84-4.42-6.63-4.42-10.65c0-4.03,1.57-7.81,4.42-10.66c2.44-2.44,5.68-3.78,9.13-3.78
				c3.44,0,6.69,1.34,9.13,3.78c2.342,2.351,4.892,9.253-1.486,14.879c-1.129,0.996-2.818,1.022-3.974,0.057
				c-1.001-0.836-0.952-2.388,0.091-3.161c3.371-2.5,1.998-9.555-3.761-9.555c-1.85,0-3.58,0.72-4.89,2.02
				c-1.71,1.71-2.66,3.99-2.66,6.42c0,2.42,0.95,4.7,2.66,6.41c2.21,2.21,5.15,3.43,8.27,3.43c3.13,0,6.07-1.22,8.28-3.43
				c2.81-2.82,4.37-6.56,4.37-10.54c0-3.98-1.56-7.73-4.37-10.54c-7.34-7.34-19.27-7.34-26.6,0c-3.43,3.43-5.68,7.73-6.52,12.4
				C39,47.5,39,47.25,39,47c0-10.88,7.25-20.07,17.18-23.01c7.21-0.77,14.69,1.6,20.2,7.11C80.33,35.05,82.51,40.3,82.51,45.89z"/></g><g><g><path style="fill:#FBE158;" d="M52.93,50.02c0-2.43,0.95-4.71,2.66-6.42c1.31-1.3,3.04-2.02,4.89-2.02
					c2.278,0,3.858,1.11,4.742,2.6l4.592-4.592c-0.068-0.075-0.136-0.16-0.203-0.228c-2.44-2.44-5.69-3.78-9.13-3.78
					c-3.45,0-6.69,1.34-9.13,3.78c-2.85,2.85-4.42,6.63-4.42,10.66c0,3.396,1.131,6.621,3.197,9.254l4.288-4.288
					C53.453,53.523,52.93,51.811,52.93,50.02z"/></g><g><path style="fill:#FBE158;" d="M76.38,31.1c-5.51-5.51-12.99-7.88-20.2-7.11C46.25,26.93,39,36.12,39,47c0,0.25,0,0.5,0.02,0.75
					c0.84-4.67,3.09-8.97,6.52-12.4c7.33-7.34,19.26-7.34,26.6,0c0.321,0.321,0.621,0.658,0.909,1.002l4.245-4.245
					C76.995,31.768,76.703,31.423,76.38,31.1z"/></g></g></g></g><g id="Blue" style="display:none;"><g style="display:inline;"><g><path style="fill:#E1F5FA;" d="M63,23c-2.37,0-4.66,0.34-6.82,0.99C46.25,26.93,39,36.12,39,47c0,0.25,0,0.5,0.02,0.75
				c0.14,4.604,1.581,8.878,3.962,12.476l-19.714,21.01c-0.376,0.405-0.354,1.038,0.052,1.413l4.395,4.084
				c0.404,0.375,1.037,0.353,1.414-0.052l19.327-20.598C52.492,69.165,57.531,71,63,71c13.25,0,24-10.75,24-24S76.25,23,63,23z"/></g><g><path style="fill:#FFFFFF;" d="M42.981,60.226l-19.714,21.01c-0.376,0.405-0.354,1.038,0.052,1.413l1.731,1.609l20.642-20.641
				C44.689,62.573,43.783,61.438,42.981,60.226z"/></g><g><path style="fill:#0081A1;" d="M87,47c0,13.25-10.75,24-24,24c-13,0-23.59-10.34-23.98-23.25C39,47.5,39,47.25,39,47
				c0-10.88,7.25-20.07,17.18-23.01C58.34,23.34,60.63,23,63,23C76.25,23,87,33.75,87,47z"/></g><g><path style="fill:#009FC7;" d="M63,23c-2.37,0-4.66,0.34-6.82,0.99C46.25,26.93,39,36.12,39,47c0,0.25,0,0.5,0.02,0.75
				c0.186,6.155,2.694,11.722,6.673,15.867l33.923-33.923C75.302,25.552,69.449,23,63,23z"/></g><g><path style="fill:#009FC7;" d="M82.51,45.89c0,5.58-2.18,10.83-6.13,14.78c-3.34,3.35-7.79,5.19-12.52,5.19
				c-4.719,0-9.17-1.84-12.51-5.19c-2.85-2.84-4.42-6.63-4.42-10.65c0-4.03,1.57-7.81,4.42-10.66c2.44-2.44,5.681-3.78,9.131-3.78
				c3.439,0,6.689,1.34,9.129,3.78c2.343,2.351,4.893,9.254-1.485,14.879c-1.129,0.996-2.817,1.021-3.974,0.057
				c-1.002-0.836-0.952-2.388,0.091-3.161c3.371-2.5,1.998-9.555-3.761-9.555c-1.851,0-3.58,0.72-4.891,2.02
				c-1.71,1.71-2.66,3.99-2.66,6.42c0,2.42,0.95,4.7,2.66,6.41c2.21,2.21,5.15,3.43,8.27,3.43c3.131,0,6.07-1.22,8.281-3.43
				c2.81-2.82,4.369-6.56,4.369-10.54c0-3.98-1.56-7.73-4.369-10.54c-7.341-7.34-19.271-7.34-26.601,0
				c-3.431,3.43-5.681,7.73-6.521,12.4C39,47.5,39,47.25,39,47c0-10.88,7.25-20.07,17.18-23.01c7.211-0.77,14.69,1.6,20.2,7.11
				C80.33,35.05,82.51,40.3,82.51,45.89z"/></g><g><g><path style="fill:#00B7E5;" d="M52.93,50.02c0-2.43,0.95-4.71,2.66-6.42c1.311-1.3,3.04-2.02,4.891-2.02
					c2.277,0,3.857,1.11,4.741,2.6l4.592-4.592c-0.067-0.075-0.136-0.16-0.203-0.228c-2.44-2.44-5.69-3.78-9.13-3.78
					c-3.45,0-6.69,1.34-9.131,3.78c-2.85,2.85-4.42,6.63-4.42,10.66c0,3.396,1.132,6.621,3.197,9.254l4.289-4.288
					C53.453,53.522,52.93,51.811,52.93,50.02z"/></g><g><path style="fill:#00B7E5;" d="M76.38,31.1c-5.51-5.51-12.989-7.88-20.2-7.11C46.25,26.93,39,36.12,39,47
					c0,0.25,0,0.5,0.02,0.75c0.84-4.67,3.09-8.97,6.521-12.4c7.33-7.34,19.26-7.34,26.601,0c0.32,0.321,0.621,0.658,0.908,1.002
					l4.245-4.245C76.995,31.768,76.703,31.423,76.38,31.1z"/></g></g></g></g><g id="R-Blue" style="display:none;"><circle style="display:inline;fill:#81D2EB;" cx="55" cy="55" r="55"/><g style="display:inline;"><g><path style="fill:#E1F5FA;" d="M63,23c-2.37,0-4.66,0.34-6.82,0.99C46.25,26.93,39,36.12,39,47c0,0.25,0,0.5,0.02,0.75
				c0.14,4.604,1.581,8.878,3.962,12.476l-19.714,21.01c-0.376,0.405-0.354,1.038,0.052,1.413l4.395,4.084
				c0.404,0.376,1.037,0.353,1.414-0.052l19.327-20.598C52.492,69.165,57.531,71,63,71c13.25,0,24-10.75,24-24S76.25,23,63,23z"/></g><g><path style="fill:#FFFFFF;" d="M42.981,60.226l-19.714,21.01c-0.376,0.405-0.354,1.038,0.052,1.413l1.731,1.609l20.642-20.641
				C44.689,62.573,43.783,61.438,42.981,60.226z"/></g><g><path style="fill:#0081A1;" d="M87,47c0,13.25-10.75,24-24,24c-13,0-23.59-10.34-23.98-23.25C39,47.5,39,47.25,39,47
				c0-10.88,7.25-20.07,17.18-23.01C58.34,23.34,60.63,23,63,23C76.25,23,87,33.75,87,47z"/></g><g><path style="fill:#009FC7;" d="M63,23c-2.37,0-4.66,0.34-6.82,0.99C46.25,26.93,39,36.12,39,47c0,0.25,0,0.5,0.02,0.75
				c0.186,6.155,2.694,11.722,6.673,15.867l33.923-33.923C75.302,25.552,69.449,23,63,23z"/></g><g><path style="fill:#009FC7;" d="M82.51,45.89c0,5.58-2.18,10.83-6.13,14.78c-3.34,3.35-7.79,5.19-12.52,5.19
				c-4.719,0-9.17-1.84-12.51-5.19c-2.85-2.84-4.42-6.63-4.42-10.65c0-4.03,1.57-7.81,4.42-10.66c2.44-2.44,5.681-3.78,9.131-3.78
				c3.439,0,6.689,1.34,9.129,3.78c2.343,2.351,4.893,9.254-1.485,14.879c-1.129,0.996-2.817,1.021-3.974,0.057
				c-1.002-0.836-0.952-2.388,0.091-3.161c3.371-2.5,1.998-9.555-3.761-9.555c-1.851,0-3.58,0.72-4.891,2.02
				c-1.71,1.71-2.66,3.99-2.66,6.42c0,2.42,0.95,4.7,2.66,6.41c2.21,2.21,5.15,3.43,8.27,3.43c3.131,0,6.07-1.22,8.281-3.43
				c2.81-2.82,4.369-6.56,4.369-10.54c0-3.98-1.56-7.73-4.369-10.54c-7.341-7.34-19.271-7.34-26.601,0
				c-3.431,3.43-5.681,7.73-6.521,12.4C39,47.5,39,47.25,39,47c0-10.88,7.25-20.07,17.18-23.01c7.211-0.77,14.69,1.6,20.2,7.11
				C80.33,35.05,82.51,40.3,82.51,45.89z"/></g><g><g><path style="fill:#00B7E5;" d="M52.93,50.02c0-2.43,0.95-4.71,2.66-6.42c1.311-1.3,3.04-2.02,4.891-2.02
					c2.277,0,3.857,1.11,4.741,2.6l4.592-4.592c-0.067-0.075-0.136-0.16-0.203-0.228c-2.44-2.44-5.69-3.78-9.13-3.78
					c-3.45,0-6.69,1.34-9.131,3.78c-2.85,2.85-4.42,6.63-4.42,10.66c0,3.396,1.132,6.621,3.197,9.254l4.289-4.288
					C53.453,53.522,52.93,51.81,52.93,50.02z"/></g><g><path style="fill:#00B7E5;" d="M76.38,31.1c-5.51-5.51-12.989-7.88-20.2-7.11C46.25,26.93,39,36.12,39,47
					c0,0.25,0,0.5,0.02,0.75c0.84-4.67,3.09-8.97,6.521-12.4c7.33-7.34,19.26-7.34,26.601,0c0.32,0.321,0.621,0.658,0.908,1.002
					l4.245-4.245C76.995,31.768,76.703,31.423,76.38,31.1z"/></g></g></g></g><g id="Green" style="display:none;"><g style="display:inline;"><g><path style="fill:#D7FCF9;" d="M63,23c-2.37,0-4.66,0.34-6.82,0.99C46.25,26.93,39,36.12,39,47c0,0.25,0,0.5,0.02,0.75
				c0.14,4.604,1.581,8.878,3.962,12.476l-19.714,21.01c-0.376,0.405-0.354,1.038,0.052,1.413l4.395,4.084
				c0.404,0.375,1.037,0.353,1.414-0.052l19.327-20.598C52.492,69.165,57.531,71,63,71c13.25,0,24-10.75,24-24S76.25,23,63,23z"/></g><g><path style="fill:#FFFFFF;" d="M42.981,60.226l-19.714,21.01c-0.376,0.405-0.354,1.038,0.052,1.413l1.731,1.609l20.642-20.641
				C44.689,62.573,43.783,61.438,42.981,60.226z"/></g><g><path style="fill:#009687;" d="M87,47c0,13.25-10.75,24-24,24c-13,0-23.59-10.34-23.98-23.25C39,47.5,39,47.25,39,47
				c0-10.88,7.25-20.07,17.18-23.01C58.34,23.34,60.63,23,63,23C76.25,23,87,33.75,87,47z"/></g><g><path style="fill:#00B8A5;" d="M63,23c-2.37,0-4.66,0.34-6.82,0.99C46.25,26.93,39,36.12,39,47c0,0.25,0,0.5,0.02,0.75
				c0.186,6.155,2.694,11.722,6.673,15.867l33.923-33.923C75.302,25.552,69.449,23,63,23z"/></g><g><path style="fill:#00B8A5;" d="M82.51,45.89c0,5.58-2.18,10.83-6.13,14.78c-3.34,3.35-7.79,5.19-12.521,5.19
				c-4.719,0-9.17-1.84-12.51-5.19c-2.85-2.84-4.42-6.63-4.42-10.65c0-4.03,1.57-7.81,4.42-10.66c2.44-2.44,5.681-3.78,9.131-3.78
				c3.439,0,6.689,1.34,9.129,3.78c2.343,2.351,4.893,9.254-1.485,14.879c-1.129,0.996-2.817,1.021-3.974,0.057
				c-1.002-0.836-0.952-2.388,0.091-3.161c3.371-2.5,1.998-9.555-3.761-9.555c-1.851,0-3.58,0.72-4.891,2.02
				c-1.71,1.71-2.66,3.99-2.66,6.42c0,2.42,0.95,4.7,2.66,6.41c2.21,2.21,5.15,3.43,8.27,3.43c3.131,0,6.07-1.22,8.281-3.43
				c2.81-2.82,4.369-6.56,4.369-10.54c0-3.98-1.56-7.73-4.369-10.54c-7.341-7.34-19.27-7.34-26.601,0
				c-3.431,3.43-5.681,7.73-6.521,12.4C39,47.5,39,47.25,39,47c0-10.88,7.25-20.07,17.18-23.01c7.211-0.77,14.69,1.6,20.2,7.11
				C80.33,35.05,82.51,40.3,82.51,45.89z"/></g><g><g><path style="fill:#00D6C1;" d="M52.93,50.02c0-2.43,0.95-4.71,2.66-6.42c1.311-1.3,3.04-2.02,4.891-2.02
					c2.277,0,3.857,1.11,4.741,2.6l4.592-4.592c-0.067-0.075-0.136-0.16-0.203-0.228c-2.44-2.44-5.691-3.78-9.13-3.78
					c-3.45,0-6.69,1.34-9.131,3.78c-2.85,2.85-4.42,6.63-4.42,10.66c0,3.396,1.132,6.621,3.197,9.254l4.289-4.288
					C53.453,53.522,52.93,51.811,52.93,50.02z"/></g><g><path style="fill:#00D6C1;" d="M76.38,31.1c-5.51-5.51-12.989-7.88-20.2-7.11C46.25,26.93,39,36.12,39,47
					c0,0.25,0,0.5,0.02,0.75c0.84-4.67,3.09-8.97,6.521-12.4c7.33-7.34,19.26-7.34,26.601,0c0.32,0.321,0.621,0.658,0.908,1.002
					l4.245-4.245C76.995,31.768,76.703,31.423,76.38,31.1z"/></g></g></g></g><g id="R-Green" style="display:none;"><circle style="display:inline;fill:#77E0C4;" cx="55" cy="55" r="55"/><g style="display:inline;"><g><path style="fill:#D7FCF9;" d="M63,23c-2.37,0-4.66,0.34-6.82,0.99C46.25,26.93,39,36.12,39,47c0,0.25,0,0.5,0.02,0.75
				c0.14,4.604,1.581,8.878,3.962,12.476l-19.714,21.01c-0.376,0.405-0.353,1.038,0.052,1.413l4.396,4.084
				c0.404,0.375,1.037,0.353,1.414-0.052l19.327-20.598C52.492,69.165,57.531,71,63,71c13.25,0,24-10.75,24-24S76.25,23,63,23z"/></g><g><path style="fill:#FFFFFF;" d="M42.981,60.226l-19.714,21.01c-0.376,0.405-0.353,1.038,0.052,1.413l1.732,1.609l20.642-20.641
				C44.689,62.573,43.783,61.438,42.981,60.226z"/></g><g><path style="fill:#009687;" d="M87,47c0,13.25-10.75,24-24,24c-13,0-23.59-10.34-23.98-23.25C39,47.5,39,47.25,39,47
				c0-10.88,7.25-20.07,17.18-23.01C58.34,23.34,60.63,23,63,23C76.25,23,87,33.75,87,47z"/></g><g><path style="fill:#00B8A5;" d="M63,23c-2.37,0-4.66,0.34-6.82,0.99C46.25,26.93,39,36.12,39,47c0,0.25,0,0.5,0.02,0.75
				c0.186,6.155,2.694,11.722,6.673,15.867l33.923-33.923C75.302,25.552,69.449,23,63,23z"/></g><g><path style="fill:#00B8A5;" d="M82.51,45.89c0,5.58-2.18,10.83-6.13,14.78c-3.34,3.35-7.79,5.19-12.52,5.19
				c-4.719,0-9.17-1.84-12.51-5.19c-2.85-2.84-4.42-6.63-4.42-10.65c0-4.03,1.57-7.81,4.42-10.66c2.44-2.44,5.681-3.78,9.131-3.78
				c3.439,0,6.689,1.34,9.129,3.78c2.343,2.351,4.893,9.254-1.485,14.879c-1.129,0.996-2.817,1.021-3.974,0.057
				c-1.002-0.836-0.952-2.388,0.091-3.161c3.371-2.5,1.998-9.555-3.761-9.555c-1.851,0-3.58,0.72-4.891,2.02
				c-1.71,1.71-2.66,3.99-2.66,6.42c0,2.42,0.95,4.7,2.66,6.41c2.21,2.21,5.15,3.43,8.27,3.43c3.131,0,6.07-1.22,8.281-3.43
				c2.81-2.82,4.369-6.56,4.369-10.54c0-3.98-1.56-7.73-4.369-10.54c-7.341-7.34-19.271-7.34-26.601,0
				c-3.431,3.43-5.681,7.73-6.521,12.4C39,47.5,39,47.25,39,47c0-10.88,7.25-20.07,17.18-23.01c7.211-0.77,14.69,1.6,20.2,7.11
				C80.33,35.05,82.51,40.3,82.51,45.89z"/></g><g><g><path style="fill:#00D6C1;" d="M52.93,50.02c0-2.43,0.95-4.71,2.66-6.42c1.311-1.3,3.04-2.02,4.891-2.02
					c2.277,0,3.857,1.11,4.741,2.6l4.592-4.592c-0.067-0.075-0.136-0.16-0.203-0.228c-2.44-2.44-5.69-3.78-9.13-3.78
					c-3.45,0-6.69,1.34-9.131,3.78c-2.85,2.85-4.42,6.63-4.42,10.66c0,3.396,1.132,6.621,3.197,9.254l4.289-4.288
					C53.453,53.522,52.93,51.811,52.93,50.02z"/></g><g><path style="fill:#00D6C1;" d="M76.38,31.1c-5.51-5.51-12.989-7.88-20.2-7.11C46.25,26.93,39,36.12,39,47
					c0,0.25,0,0.5,0.02,0.75c0.84-4.67,3.09-8.97,6.521-12.4c7.33-7.34,19.26-7.34,26.601,0c0.32,0.321,0.621,0.658,0.908,1.002
					l4.245-4.245C76.995,31.768,76.703,31.423,76.38,31.1z"/></g></g></g></g><g id="Red" style="display:none;"><g style="display:inline;"><g><path style="fill:#FFEFED;" d="M63,23c-2.37,0-4.66,0.34-6.82,0.99C46.25,26.93,39,36.12,39,47c0,0.25,0,0.5,0.019,0.75
				c0.14,4.604,1.581,8.878,3.962,12.476l-19.714,21.01c-0.376,0.405-0.353,1.038,0.052,1.413l4.396,4.084
				c0.404,0.375,1.037,0.353,1.414-0.052l19.327-20.598C52.492,69.165,57.531,71,63,71c13.25,0,24-10.75,24-24S76.25,23,63,23z"/></g><g><path style="fill:#FFFFFF;" d="M42.981,60.226l-19.714,21.01c-0.376,0.405-0.353,1.038,0.052,1.413l1.732,1.609l20.642-20.641
				C44.689,62.573,43.783,61.438,42.981,60.226z"/></g><g><path style="fill:#C23023;" d="M87,47c0,13.25-10.75,24-24,24c-13,0-23.59-10.34-23.981-23.25C39,47.5,39,47.25,39,47
				c0-10.88,7.25-20.07,17.18-23.01C58.34,23.34,60.63,23,63,23C76.25,23,87,33.75,87,47z"/></g><g><path style="fill:#E54B44;" d="M63,23c-2.37,0-4.66,0.34-6.82,0.99C46.25,26.93,39,36.12,39,47c0,0.25,0,0.5,0.019,0.75
				c0.186,6.155,2.694,11.722,6.673,15.867l33.923-33.923C75.302,25.552,69.449,23,63,23z"/></g><g><path style="fill:#E54B44;" d="M82.51,45.89c0,5.58-2.18,10.83-6.13,14.78c-3.34,3.35-7.79,5.19-12.52,5.19
				c-4.719,0-9.17-1.84-12.51-5.19c-2.85-2.84-4.42-6.63-4.42-10.65c0-4.03,1.57-7.81,4.42-10.66c2.44-2.44,5.681-3.78,9.131-3.78
				c3.439,0,6.689,1.34,9.129,3.78c2.343,2.351,4.893,9.254-1.485,14.879c-1.129,0.996-2.817,1.021-3.974,0.057
				c-1.002-0.836-0.952-2.388,0.091-3.161c3.371-2.5,1.998-9.555-3.761-9.555c-1.851,0-3.58,0.72-4.891,2.02
				c-1.71,1.71-2.66,3.99-2.66,6.42c0,2.42,0.95,4.7,2.66,6.41c2.21,2.21,5.15,3.43,8.27,3.43c3.131,0,6.07-1.22,8.281-3.43
				c2.81-2.82,4.369-6.56,4.369-10.54c0-3.98-1.56-7.73-4.369-10.54c-7.341-7.34-19.271-7.34-26.601,0
				c-3.431,3.43-5.681,7.73-6.521,12.4C39,47.5,39,47.25,39,47c0-10.88,7.25-20.07,17.18-23.01c7.211-0.77,14.69,1.6,20.2,7.11
				C80.33,35.05,82.51,40.3,82.51,45.89z"/></g><g><g><path style="fill:#FF6C5E;" d="M52.93,50.02c0-2.43,0.95-4.71,2.66-6.42c1.311-1.3,3.04-2.02,4.891-2.02
					c2.277,0,3.857,1.11,4.741,2.6l4.592-4.592c-0.067-0.075-0.136-0.16-0.203-0.228c-2.44-2.44-5.69-3.78-9.13-3.78
					c-3.45,0-6.69,1.34-9.131,3.78c-2.85,2.85-4.42,6.63-4.42,10.66c0,3.396,1.132,6.621,3.197,9.254l4.289-4.288
					C53.453,53.522,52.93,51.811,52.93,50.02z"/></g><g><path style="fill:#FF6C5E;" d="M76.38,31.1c-5.51-5.51-12.989-7.88-20.2-7.11C46.25,26.93,39,36.12,39,47
					c0,0.25,0,0.5,0.019,0.75c0.84-4.67,3.09-8.97,6.521-12.4c7.33-7.34,19.26-7.34,26.601,0c0.32,0.321,0.621,0.658,0.908,1.002
					l4.245-4.245C76.995,31.768,76.703,31.423,76.38,31.1z"/></g></g></g></g><g id="R-Red" style="display:none;"><circle style="display:inline;fill:#FABBAF;" cx="55" cy="55" r="55"/><g style="display:inline;"><g><path style="fill:#FFEFED;" d="M63,23c-2.37,0-4.66,0.34-6.82,0.99C46.25,26.93,39,36.12,39,47c0,0.25,0,0.5,0.019,0.75
				c0.14,4.604,1.581,8.878,3.962,12.476l-19.714,21.01c-0.376,0.405-0.353,1.038,0.052,1.413l4.396,4.084
				c0.404,0.375,1.037,0.353,1.414-0.052l19.327-20.598C52.492,69.165,57.531,71,63,71c13.25,0,24-10.75,24-24S76.25,23,63,23z"/></g><g><path style="fill:#FFFFFF;" d="M42.981,60.226l-19.714,21.01c-0.376,0.405-0.353,1.038,0.052,1.413l1.732,1.609l20.642-20.641
				C44.689,62.573,43.783,61.438,42.981,60.226z"/></g><g><path style="fill:#C23023;" d="M87,47c0,13.25-10.75,24-24,24c-13,0-23.59-10.34-23.981-23.25C39,47.5,39,47.25,39,47
				c0-10.88,7.25-20.07,17.18-23.01C58.34,23.34,60.63,23,63,23C76.25,23,87,33.75,87,47z"/></g><g><path style="fill:#E54B44;" d="M63,23c-2.37,0-4.66,0.34-6.82,0.99C46.25,26.93,39,36.12,39,47c0,0.25,0,0.5,0.019,0.75
				c0.186,6.155,2.694,11.722,6.673,15.867l33.923-33.923C75.302,25.552,69.449,23,63,23z"/></g><g><path style="fill:#E54B44;" d="M82.51,45.89c0,5.58-2.18,10.83-6.13,14.78c-3.34,3.35-7.79,5.19-12.52,5.19
				c-4.719,0-9.17-1.84-12.51-5.19c-2.85-2.84-4.42-6.63-4.42-10.65c0-4.03,1.57-7.81,4.42-10.66c2.44-2.44,5.681-3.78,9.131-3.78
				c3.439,0,6.689,1.34,9.129,3.78c2.343,2.351,4.893,9.254-1.485,14.879c-1.129,0.996-2.817,1.021-3.974,0.057
				c-1.002-0.836-0.952-2.388,0.091-3.161c3.371-2.5,1.998-9.555-3.761-9.555c-1.851,0-3.58,0.72-4.891,2.02
				c-1.71,1.71-2.66,3.99-2.66,6.42c0,2.42,0.95,4.7,2.66,6.41c2.21,2.21,5.15,3.43,8.27,3.43c3.131,0,6.07-1.22,8.281-3.43
				c2.81-2.82,4.369-6.56,4.369-10.54c0-3.98-1.56-7.73-4.369-10.54c-7.341-7.34-19.271-7.34-26.601,0
				c-3.431,3.43-5.681,7.73-6.521,12.4C39,47.5,39,47.25,39,47c0-10.88,7.25-20.07,17.18-23.01c7.211-0.77,14.69,1.6,20.2,7.11
				C80.33,35.05,82.51,40.3,82.51,45.89z"/></g><g><g><path style="fill:#FF6C5E;" d="M52.93,50.02c0-2.43,0.95-4.71,2.66-6.42c1.311-1.3,3.04-2.02,4.891-2.02
					c2.277,0,3.857,1.11,4.741,2.6l4.592-4.592c-0.067-0.075-0.136-0.16-0.203-0.228c-2.44-2.44-5.69-3.78-9.13-3.78
					c-3.45,0-6.69,1.34-9.131,3.78c-2.85,2.85-4.42,6.63-4.42,10.66c0,3.396,1.132,6.621,3.197,9.254l4.289-4.288
					C53.453,53.522,52.93,51.811,52.93,50.02z"/></g><g><path style="fill:#FF6C5E;" d="M76.38,31.1c-5.51-5.51-12.989-7.88-20.2-7.11C46.25,26.93,39,36.12,39,47
					c0,0.25,0,0.5,0.019,0.75c0.84-4.67,3.09-8.97,6.521-12.4c7.33-7.34,19.26-7.34,26.601,0c0.32,0.321,0.621,0.658,0.908,1.002
					l4.245-4.245C76.995,31.768,76.703,31.423,76.38,31.1z"/></g></g></g></g><g id="Yellow" style="display:none;"><g style="display:inline;"><g><path style="fill:#FFF5D9;" d="M63,23c-2.37,0-4.66,0.34-6.82,0.99C46.25,26.93,39,36.12,39,47c0,0.25,0,0.5,0.02,0.75
				c0.14,4.604,1.581,8.878,3.962,12.476l-19.714,21.01c-0.376,0.405-0.353,1.038,0.052,1.413l4.396,4.084
				c0.404,0.375,1.037,0.353,1.414-0.052l19.327-20.598C52.492,69.165,57.531,71,63,71c13.25,0,24-10.75,24-24S76.25,23,63,23z"/></g><g><path style="fill:#FFFFFF;" d="M42.981,60.226l-19.714,21.01c-0.376,0.405-0.353,1.038,0.052,1.413l1.732,1.609l20.642-20.641
				C44.689,62.573,43.783,61.438,42.981,60.226z"/></g><g><path style="fill:#E07000;" d="M87,47c0,13.25-10.75,24-24,24c-13,0-23.59-10.34-23.98-23.25C39,47.5,39,47.25,39,47
				c0-10.88,7.25-20.07,17.18-23.01C58.34,23.34,60.63,23,63,23C76.25,23,87,33.75,87,47z"/></g><g><path style="fill:#FA9200;" d="M63,23c-2.37,0-4.66,0.34-6.82,0.99C46.25,26.93,39,36.12,39,47c0,0.25,0,0.5,0.02,0.75
				c0.186,6.155,2.694,11.722,6.673,15.867l33.923-33.923C75.302,25.552,69.449,23,63,23z"/></g><g><path style="fill:#FA9200;" d="M82.51,45.89c0,5.58-2.18,10.83-6.13,14.78c-3.34,3.35-7.79,5.19-12.52,5.19
				c-4.719,0-9.17-1.84-12.51-5.19c-2.85-2.84-4.42-6.63-4.42-10.65c0-4.03,1.57-7.81,4.42-10.66c2.44-2.44,5.681-3.78,9.131-3.78
				c3.439,0,6.689,1.34,9.129,3.78c2.343,2.351,4.893,9.254-1.485,14.879c-1.129,0.996-2.817,1.021-3.974,0.057
				c-1.002-0.836-0.952-2.388,0.091-3.161c3.371-2.5,1.998-9.555-3.761-9.555c-1.851,0-3.58,0.72-4.891,2.02
				c-1.71,1.71-2.66,3.99-2.66,6.42c0,2.42,0.95,4.7,2.66,6.41c2.21,2.21,5.15,3.43,8.27,3.43c3.131,0,6.07-1.22,8.281-3.43
				c2.81-2.82,4.369-6.56,4.369-10.54c0-3.98-1.56-7.73-4.369-10.54c-7.341-7.34-19.271-7.34-26.601,0
				c-3.431,3.43-5.681,7.73-6.521,12.4C39,47.5,39,47.25,39,47c0-10.88,7.25-20.07,17.18-23.01c7.211-0.77,14.69,1.6,20.2,7.11
				C80.33,35.05,82.51,40.3,82.51,45.89z"/></g><g><g><path style="fill:#FFAA00;" d="M52.93,50.02c0-2.43,0.95-4.71,2.66-6.42c1.311-1.3,3.04-2.02,4.891-2.02
					c2.277,0,3.857,1.11,4.741,2.6l4.592-4.592c-0.067-0.075-0.136-0.16-0.203-0.228c-2.44-2.44-5.69-3.78-9.13-3.78
					c-3.45,0-6.69,1.34-9.131,3.78c-2.85,2.85-4.42,6.63-4.42,10.66c0,3.396,1.132,6.621,3.197,9.254l4.289-4.288
					C53.453,53.522,52.93,51.811,52.93,50.02z"/></g><g><path style="fill:#FFAA00;" d="M76.38,31.1c-5.51-5.51-12.989-7.88-20.2-7.11C46.25,26.93,39,36.12,39,47
					c0,0.25,0,0.5,0.02,0.75c0.84-4.67,3.09-8.97,6.521-12.4c7.33-7.34,19.26-7.34,26.601,0c0.32,0.321,0.621,0.658,0.908,1.002
					l4.245-4.245C76.995,31.768,76.703,31.423,76.38,31.1z"/></g></g></g></g><g id="R-Yellow" style="display:none;"><circle style="display:inline;fill:#FFD75E;" cx="55" cy="55" r="55"/><g style="display:inline;"><g><path style="fill:#FFF5D9;" d="M63,23c-2.37,0-4.66,0.34-6.82,0.99C46.25,26.93,39,36.12,39,47c0,0.25,0,0.5,0.02,0.75
				c0.14,4.604,1.581,8.878,3.962,12.476l-19.714,21.01c-0.376,0.405-0.354,1.038,0.052,1.413l4.395,4.084
				c0.404,0.375,1.037,0.353,1.414-0.052l19.327-20.598C52.492,69.165,57.531,71,63,71c13.25,0,24-10.75,24-24S76.25,23,63,23z"/></g><g><path style="fill:#FFFFFF;" d="M42.981,60.226l-19.714,21.01c-0.376,0.405-0.354,1.038,0.052,1.413l1.731,1.609l20.642-20.641
				C44.689,62.573,43.783,61.438,42.981,60.226z"/></g><g><path style="fill:#E07000;" d="M87,47c0,13.25-10.75,24-24,24c-13,0-23.59-10.34-23.98-23.25C39,47.5,39,47.25,39,47
				c0-10.88,7.25-20.07,17.18-23.01C58.34,23.34,60.63,23,63,23C76.25,23,87,33.75,87,47z"/></g><g><path style="fill:#FA9200;" d="M63,23c-2.37,0-4.66,0.34-6.82,0.99C46.25,26.93,39,36.12,39,47c0,0.25,0,0.5,0.02,0.75
				c0.186,6.155,2.694,11.722,6.673,15.867l33.923-33.923C75.302,25.552,69.449,23,63,23z"/></g><g><path style="fill:#FA9200;" d="M82.51,45.89c0,5.58-2.18,10.83-6.13,14.78c-3.34,3.35-7.79,5.19-12.521,5.19
				c-4.719,0-9.17-1.84-12.51-5.19c-2.85-2.84-4.42-6.63-4.42-10.65c0-4.03,1.57-7.81,4.42-10.66c2.44-2.44,5.681-3.78,9.131-3.78
				c3.439,0,6.689,1.34,9.129,3.78c2.343,2.351,4.893,9.254-1.485,14.879c-1.129,0.996-2.817,1.021-3.974,0.057
				c-1.002-0.836-0.952-2.388,0.091-3.161c3.371-2.5,1.998-9.555-3.761-9.555c-1.851,0-3.58,0.72-4.891,2.02
				c-1.71,1.71-2.66,3.99-2.66,6.42c0,2.42,0.95,4.7,2.66,6.41c2.21,2.21,5.15,3.43,8.27,3.43c3.131,0,6.07-1.22,8.281-3.43
				c2.81-2.82,4.369-6.56,4.369-10.54c0-3.98-1.56-7.73-4.369-10.54c-7.341-7.34-19.27-7.34-26.601,0
				c-3.431,3.43-5.681,7.73-6.521,12.4C39,47.5,39,47.25,39,47c0-10.88,7.25-20.07,17.18-23.01c7.211-0.77,14.69,1.6,20.2,7.11
				C80.33,35.05,82.51,40.3,82.51,45.89z"/></g><g><g><path style="fill:#FFAA00;" d="M52.93,50.02c0-2.43,0.95-4.71,2.66-6.42c1.311-1.3,3.04-2.02,4.891-2.02
					c2.277,0,3.857,1.11,4.741,2.6l4.592-4.592c-0.067-0.075-0.136-0.16-0.203-0.228c-2.44-2.44-5.691-3.78-9.13-3.78
					c-3.45,0-6.69,1.34-9.131,3.78c-2.85,2.85-4.42,6.63-4.42,10.66c0,3.396,1.132,6.621,3.197,9.254l4.289-4.288
					C53.453,53.522,52.93,51.811,52.93,50.02z"/></g><g><path style="fill:#FFAA00;" d="M76.38,31.1c-5.51-5.51-12.989-7.88-20.2-7.11C46.25,26.93,39,36.12,39,47
					c0,0.25,0,0.5,0.02,0.75c0.84-4.67,3.09-8.97,6.521-12.4c7.33-7.34,19.26-7.34,26.601,0c0.32,0.321,0.621,0.658,0.908,1.002
					l4.245-4.245C76.995,31.768,76.703,31.423,76.38,31.1z"/></g></g></g></g></symbol>
<symbol viewBox="0 0 110 110" id="Cement-Mixer"><g id="Artboard"/><g id="Multicolor"><circle style="fill:#32BEA6;" cx="55" cy="55" r="55"/><g><g><path style="fill:#FACB1B;" d="M84.9,50.69l-3.44-10.32c-0.28-0.82-1.04-1.37-1.9-1.37H71c-1.1,0-2,0.9-2,2v24H29V46
				c0-1.657-1.343-3-3-3s-3,1.343-3,3v21v8c0,1.1,0.9,2,2,2h58c1.1,0,2-0.9,2-2V51.32C85,51.11,84.97,50.9,84.9,50.69z"/></g><g><path style="fill:#F0F1F1;" d="M69,43v4c0,0.68-0.04,1.34-0.12,2C67.794,57.205,60.912,63,53,63h-8
				c-8.282,0-14.962-6.274-15.87-14C29.04,48.34,29,47.68,29,47v-4l8-12h24L69,43z"/></g><g><path style="fill:#FFFFFF;" d="M49,31H37l-8,12v4c0,0.68,0.04,1.34,0.13,2c0.908,7.726,7.588,14,15.87,14h4V31z"/></g><g><path style="fill:#F3B607;" d="M79,44c0,0.552-0.448,1-1,1h-6c-0.552,0-1-0.448-1-1s0.448-1,1-1h6C78.552,43,79,43.448,79,44z"/></g><g><path style="fill:#F3B607;" d="M81,48c0,0.552-0.448,1-1,1h-8c-0.552,0-1-0.448-1-1s0.448-1,1-1h8C80.552,47,81,47.448,81,48z"/></g><g><path style="fill:#F3B607;" d="M81,52c0,0.552-0.448,1-1,1h-8c-0.552,0-1-0.448-1-1s0.448-1,1-1h8C80.552,51,81,51.448,81,52z"/></g><g><circle style="fill:#3E3E3F;" cx="77" cy="81" r="6"/></g><g><circle style="fill:#CFD3D4;" cx="77" cy="81" r="2"/></g><g><path style="fill:#B6BCBD;" d="M69,43v4c0,0.68-0.04,1.34-0.12,2c-0.09,0.68-0.22,1.35-0.38,2h-39c-0.16-0.65-0.29-1.32-0.37-2
				C29.04,48.34,29,47.68,29,47v-4H69z"/></g><g><path style="fill:#CFD3D4;" d="M49,43H29v4c0,0.68,0.04,1.34,0.13,2c0.08,0.68,0.21,1.35,0.37,2H49V43z"/></g><g><path style="fill:#FBE158;" d="M49,65H29V46c0-1.657-1.343-3-3-3s-3,1.343-3,3v21v8c0,1.1,0.9,2,2,2h24V65z"/></g><g><circle style="fill:#3E3E3F;" cx="33" cy="81" r="6"/></g><g><circle style="fill:#CFD3D4;" cx="33" cy="81" r="2"/></g></g></g></symbol>
<symbol viewBox="0 0 110 110" id="Car-Jumper"><g id="Artboard"/><g id="Multicolor"><circle style="fill:#FABC3D;" cx="55" cy="55" r="55"/><g><g><path style="fill:#F0F1F1;" d="M69.633,23.765c0.682-0.869,1.94-1.02,2.808-0.338l2.82,2.215c0.318,0.25,0.454,0.667,0.345,1.056
				s-0.442,0.675-0.844,0.723l-2.227,0.268c-0.548,0.066-0.939,0.564-0.874,1.112l0.436,3.631c0.066,0.548-0.325,1.046-0.874,1.112
				l-3.631,0.436c-0.548,0.066-0.939,0.564-0.874,1.112l0.436,3.631c0.066,0.548-0.325,1.046-0.874,1.112l-3.631,0.436
				c-0.548,0.066-0.939,0.564-0.874,1.112l0.436,3.631c0.066,0.548-0.325,1.046-0.874,1.112l-3.631,0.436
				c-0.548,0.066-0.939,0.564-0.874,1.112l0.436,3.631c0.066,0.548-0.325,1.046-0.874,1.112l-4.212,0.506
				c-0.263,0.032-0.528-0.043-0.737-0.206l-2.82-2.215L69.633,23.765z"/></g><g><path style="fill:#F0F1F1;" d="M85.949,40.081c0.869-0.682,1.02-1.94,0.338-2.808l-2.215-2.82
				c-0.25-0.318-0.667-0.454-1.056-0.345s-0.675,0.442-0.723,0.844l-0.268,2.227c-0.066,0.548-0.564,0.939-1.112,0.874l-3.631-0.436
				c-0.548-0.066-1.046,0.325-1.112,0.874l-0.436,3.631c-0.066,0.548-0.564,0.939-1.112,0.874l-3.631-0.436
				c-0.548-0.066-1.046,0.325-1.112,0.874l-0.436,3.631c-0.066,0.548-0.564,0.939-1.112,0.874l-3.631-0.436
				c-0.548-0.066-1.046,0.325-1.112,0.874l-0.436,3.631c-0.066,0.548-0.564,0.939-1.112,0.874l-3.631-0.436
				c-0.548-0.066-1.046,0.325-1.112,0.874l-0.506,4.212c-0.032,0.263,0.043,0.528,0.206,0.737l2.215,2.82L85.949,40.081z"/></g><g><path style="fill:#DF2C2C;" d="M54.717,54.589l-3.949-6.957l-21.742,12.34c-1.921,1.09-2.595,3.532-1.504,5.453
				s3.532,2.595,5.453,1.504L54.717,54.589z"/></g><path style="fill:#3E3E3F;" d="M73,75c-6.175,0-10.967,2.789-14.816,5.029C55.444,81.624,53.079,83,51,83
			c-1.573,0-2.665-0.235-3.361-0.55c-1.066,0.392-2.285,0.347-3.35-0.258c-0.686-0.389-1.205-0.956-1.55-1.604
			c-0.187,1.146,0.021,2.315,0.636,3.312C44.25,85.313,46.282,87,51,87c3.158,0,6.091-1.707,9.195-3.514
			C63.809,81.384,67.904,79,73,79c7.429,0,12.491,4.332,14,5.808v-5.2C84.017,77.464,79.24,75,73,75z"/><g><path style="fill:#DF2C2C;" d="M55.125,54.996l6.957,3.949l-12.34,21.742c-1.09,1.921-3.532,2.595-5.453,1.504
				c-1.921-1.09-2.595-3.532-1.504-5.453L55.125,54.996z"/></g><g><circle style="fill:#FFFFFF;" cx="54.551" cy="54.551" r="3.5"/></g><g><path style="fill:#3E3E3F;" d="M54.551,60.551c-1.603,0-3.109-0.624-4.242-1.757c-1.133-1.133-1.758-2.64-1.758-4.243
				s0.624-3.109,1.758-4.243c1.133-1.133,2.64-1.757,4.242-1.757s3.109,0.624,4.243,1.758c1.133,1.133,1.757,2.64,1.757,4.242
				s-0.624,3.109-1.758,4.243C57.66,59.927,56.153,60.551,54.551,60.551z M54.551,51.526c-1.674,0-3.025,1.356-3.025,3.025
				c0,3.946,6.05,3.978,6.05,0C57.576,52.88,56.223,51.526,54.551,51.526z"/></g><g><path style="fill:#FA5655;" d="M29.026,59.972c-1.921,1.09-2.595,3.532-1.504,5.453c0.467,0.823,1.189,1.401,2.006,1.725
				l17.258-17.258L29.026,59.972z"/></g></g></g></symbol>
<symbol viewBox="0 0 110 110" id="Checklist"><g id="Artboard"/><g id="Multicolor"><circle style="fill:#E04F5F;" cx="55" cy="55" r="55"/><g><path style="fill:#FFFFFF;" d="M23,26.84c0-2.121,1.719-3.84,3.84-3.84H55l16,13.44v46.72c0,2.121-1.719,3.84-3.84,3.84H26.84
			C24.719,87,23,85.281,23,83.16V26.84z"/><path style="fill:#F0F1F1;" d="M55,23v9.6c0,2.121,1.719,3.84,3.84,3.84H71L55,23z"/><polygon style="fill:#F4D0A1;" points="77,41.5 82,31 87,41.5 87,80 77,80 		"/><polygon style="fill:#EDBC7C;" points="87,47 87,41.5 82,31 82,47 		"/><path style="fill:#F79392;" d="M87,84c0,1.657-1.343,3-3,3h-4c-1.657,0-3-1.343-3-3v-2h10V84z"/><path style="fill:#E2E4E5;" d="M62,45c0,0.55-0.45,1-1,1H46c-0.55,0-1-0.45-1-1l0,0c0-0.55,0.45-1,1-1h15C61.55,44,62,44.45,62,45
			L62,45z"/><path style="fill:#E2E4E5;" d="M56,50c0,0.55-0.45,1-1,1h-9c-0.55,0-1-0.45-1-1l0,0c0-0.55,0.45-1,1-1h9C55.55,49,56,49.45,56,50
			L56,50z"/><path style="fill:#E2E4E5;" d="M62,58c0,0.55-0.45,1-1,1H46c-0.55,0-1-0.45-1-1l0,0c0-0.55,0.45-1,1-1h15C61.55,57,62,57.45,62,58
			L62,58z"/><path style="fill:#E2E4E5;" d="M56,63c0,0.55-0.45,1-1,1h-9c-0.55,0-1-0.45-1-1l0,0c0-0.55,0.45-1,1-1h9C55.55,62,56,62.45,56,63
			L56,63z"/><path style="fill:#E2E4E5;" d="M62,71c0,0.55-0.45,1-1,1H46c-0.55,0-1-0.45-1-1l0,0c0-0.55,0.45-1,1-1h15C61.55,70,62,70.45,62,71
			L62,71z"/><path style="fill:#E2E4E5;" d="M56,76c0,0.55-0.45,1-1,1h-9c-0.55,0-1-0.45-1-1l0,0c0-0.55,0.45-1,1-1h9C55.55,75,56,75.45,56,76
			L56,76z"/><g><path style="fill:#17B198;" d="M35.067,52l-3.774-3.774c-0.391-0.39-0.391-1.024,0-1.414c0.391-0.391,1.024-0.391,1.414,0
				l2.226,2.226l4.299-5.159c0.354-0.425,0.984-0.482,1.408-0.128c0.424,0.354,0.482,0.984,0.128,1.408L35.067,52z"/></g><g><path style="fill:#17B198;" d="M35.067,65l-3.774-3.774c-0.391-0.39-0.391-1.024,0-1.414c0.391-0.391,1.024-0.391,1.414,0
				l2.226,2.226l4.299-5.159c0.354-0.425,0.984-0.482,1.408-0.128c0.424,0.354,0.482,0.984,0.128,1.408L35.067,65z"/></g><g><path style="fill:#17B198;" d="M35.067,78l-3.774-3.774c-0.391-0.39-0.391-1.024,0-1.414c0.391-0.391,1.024-0.391,1.414,0
				l2.226,2.226l4.299-5.159c0.354-0.425,0.984-0.482,1.408-0.128c0.424,0.354,0.482,0.984,0.128,1.408L35.067,78z"/></g><rect x="77" y="79" style="fill:#FACB1B;" width="10" height="3"/><rect x="77" y="80" style="fill:#FBE158;" width="5" height="2"/><path style="fill:#3E3E3F;" d="M82.013,30.984l-1.857,3.899c0.512,0.678,1.152,1.101,1.857,1.101s1.345-0.422,1.857-1.101
			L82.013,30.984z"/><path style="fill:#0484AB;" d="M84.5,43c-1.154,0-2.126-0.782-2.413-1.845c-0.026-0.097-0.147-0.097-0.173,0
			C81.626,42.218,80.654,43,79.5,43c-1.052,0-1.953-0.65-2.322-1.571C77.139,41.332,77,41.359,77,41.464V80h10V41.464
			c0-0.105-0.139-0.131-0.178-0.034C86.453,42.35,85.552,43,84.5,43z"/><path style="fill:#21B2D1;" d="M77,80V41.493c0-0.111,0.147-0.139,0.19-0.036C77.565,42.363,78.458,43,79.5,43
			c1.159,0,2.134-0.789,2.417-1.859C81.931,41.089,82,41.096,82,41.15V80H77z"/><path style="fill:#F7B4B4;" d="M77,82v2c0,1.657,1.343,3,3,3h2v-5H77z"/></g></g></symbol>
<symbol viewBox="0 0 110 110" id="Cheese"><g id="Artboard" style="display:none;"><rect x="-1096.5" y="-674.5" style="display:inline;fill:#808080;stroke:#000000;stroke-miterlimit:10;" width="1392" height="1369"/></g><g id="R-Multicolor"><circle style="fill:#E04F5F;" cx="55" cy="55" r="55"/><g><g><path style="fill:#FBE158;" d="M83,39L27,59v26c0,0.65,0.316,1.26,0.848,1.635s1.212,0.467,1.825,0.249L83,67.838V39z"/></g><g><path style="fill:#FCF6C2;" d="M83,39L27,59l28-36C67.21,23,78.326,30.413,83,39z"/></g><g><circle style="fill:#F3B607;" cx="52" cy="70" r="1"/></g><g><circle style="fill:#F3B607;" cx="78" cy="46" r="1"/></g><g><circle style="fill:#F3B607;" cx="71" cy="55" r="4"/></g><g><circle style="fill:#F3B607;" cx="40" cy="58" r="1"/></g><g><path style="fill:#F3B607;" d="M44.6,78.831c-0.025,0.018-0.051,0.043-0.07,0.068c-0.721,0.955-0.637,1.928-0.159,2.601
				l3.616-1.291C47.884,78.732,46.197,77.691,44.6,78.831z"/></g><g><circle style="fill:#F3B607;" cx="64" cy="65" r="2"/></g><g><circle style="fill:#F3B607;" cx="37" cy="69" r="2"/></g><g><ellipse style="fill:#FACB1B;" cx="58" cy="30.5" rx="3" ry="1.5"/></g><g><ellipse style="fill:#FACB1B;" cx="51.5" cy="41.25" rx="2.5" ry="1.25"/></g><g><ellipse style="fill:#FACB1B;" cx="66.5" cy="37" rx="4.5" ry="2"/></g><g><ellipse style="fill:#FACB1B;" cx="42" cy="48" rx="2" ry="1"/></g></g></g><g id="Multicolor" style="display:none;"><g style="display:inline;"><g><path style="fill:#FBE158;" d="M83,39L27,59v26c0,0.65,0.316,1.26,0.848,1.635s1.212,0.467,1.825,0.249L83,67.838V39z"/></g><g><path style="fill:#FCF6C2;" d="M83,39L27,59l28-36C67.21,23,78.326,30.413,83,39z"/></g><g><circle style="fill:#F3B607;" cx="52" cy="70" r="1"/></g><g><circle style="fill:#F3B607;" cx="78" cy="46" r="1"/></g><g><circle style="fill:#F3B607;" cx="71" cy="55" r="4"/></g><g><circle style="fill:#F3B607;" cx="40" cy="58" r="1"/></g><g><path style="fill:#F3B607;" d="M44.6,78.831c-0.025,0.018-0.051,0.043-0.07,0.068c-0.721,0.955-0.637,1.928-0.159,2.601
				l3.616-1.291C47.884,78.732,46.197,77.691,44.6,78.831z"/></g><g><circle style="fill:#F3B607;" cx="64" cy="65" r="2"/></g><g><circle style="fill:#F3B607;" cx="37" cy="69" r="2"/></g><g><ellipse style="fill:#FACB1B;" cx="58" cy="30.5" rx="3" ry="1.5"/></g><g><ellipse style="fill:#FACB1B;" cx="51.5" cy="41.25" rx="2.5" ry="1.25"/></g><g><ellipse style="fill:#FACB1B;" cx="66.5" cy="37" rx="4.5" ry="2"/></g><g><ellipse style="fill:#FACB1B;" cx="42" cy="48" rx="2" ry="1"/></g></g></g><g id="Blue" style="display:none;"><g style="display:inline;"><g><path style="fill:#BBE7F2;" d="M83,39L27,59v26c0,0.65,0.316,1.26,0.848,1.635c0.531,0.375,1.213,0.468,1.825,0.249L83,67.838V39
				z"/></g><g><path style="fill:#FFFFFF;" d="M83,39L27,59l28-36C67.21,23,78.326,30.413,83,39z"/></g><g><circle style="fill:#53BAD4;" cx="52" cy="70" r="1"/></g><g><circle style="fill:#53BAD4;" cx="78" cy="46" r="1"/></g><g><circle style="fill:#53BAD4;" cx="71" cy="55" r="4"/></g><g><circle style="fill:#53BAD4;" cx="40" cy="58" r="1"/></g><g><path style="fill:#53BAD4;" d="M44.6,78.831c-0.025,0.018-0.051,0.043-0.07,0.068c-0.721,0.955-0.637,1.928-0.158,2.601
				l3.615-1.291C47.884,78.732,46.197,77.691,44.6,78.831z"/></g><g><circle style="fill:#53BAD4;" cx="64" cy="65" r="2"/></g><g><circle style="fill:#53BAD4;" cx="37" cy="69" r="2"/></g><g><ellipse style="fill:#BBE7F2;" cx="58" cy="30.5" rx="3" ry="1.5"/></g><g><ellipse style="fill:#BBE7F2;" cx="51.5" cy="41.25" rx="2.5" ry="1.25"/></g><g><ellipse style="fill:#BBE7F2;" cx="66.5" cy="37" rx="4.5" ry="2"/></g><g><ellipse style="fill:#BBE7F2;" cx="42" cy="48" rx="2" ry="1"/></g></g></g><g id="R-Blue" style="display:none;"><circle style="display:inline;fill:#81D2EB;" cx="55" cy="55" r="55"/><g style="display:inline;"><g><path style="fill:#BBE7F2;" d="M83,39L27,59v26c0,0.65,0.316,1.26,0.848,1.635c0.531,0.375,1.213,0.468,1.825,0.249L83,67.838V39
				z"/></g><g><path style="fill:#FFFFFF;" d="M83,39L27,59l28-36C67.21,23,78.326,30.413,83,39z"/></g><g><circle style="fill:#53BAD4;" cx="52" cy="70" r="1"/></g><g><circle style="fill:#53BAD4;" cx="78" cy="46" r="1"/></g><g><circle style="fill:#53BAD4;" cx="71" cy="55" r="4"/></g><g><circle style="fill:#53BAD4;" cx="40" cy="58" r="1"/></g><g><path style="fill:#53BAD4;" d="M44.6,78.831c-0.025,0.018-0.051,0.043-0.07,0.068c-0.721,0.955-0.637,1.928-0.158,2.601
				l3.615-1.291C47.884,78.732,46.197,77.691,44.6,78.831z"/></g><g><circle style="fill:#53BAD4;" cx="64" cy="65" r="2"/></g><g><circle style="fill:#53BAD4;" cx="37" cy="69" r="2"/></g><g><ellipse style="fill:#BBE7F2;" cx="58" cy="30.5" rx="3" ry="1.5"/></g><g><ellipse style="fill:#BBE7F2;" cx="51.5" cy="41.25" rx="2.5" ry="1.25"/></g><g><ellipse style="fill:#BBE7F2;" cx="66.5" cy="37" rx="4.5" ry="2"/></g><g><ellipse style="fill:#BBE7F2;" cx="42" cy="48" rx="2" ry="1"/></g></g></g><g id="Green" style="display:none;"><g style="display:inline;"><g><path style="fill:#AAF0E9;" d="M83,39L27,59v26c0,0.65,0.316,1.26,0.848,1.635c0.531,0.375,1.213,0.468,1.825,0.249L83,67.838V39
				z"/></g><g><path style="fill:#FFFFFF;" d="M83,39L27,59l28-36C67.21,23,78.326,30.413,83,39z"/></g><g><circle style="fill:#55C9BE;" cx="52" cy="70" r="1"/></g><g><circle style="fill:#55C9BE;" cx="78" cy="46" r="1"/></g><g><circle style="fill:#55C9BE;" cx="71" cy="55" r="4"/></g><g><circle style="fill:#55C9BE;" cx="40" cy="58" r="1"/></g><g><path style="fill:#55C9BE;" d="M44.6,78.831c-0.025,0.018-0.051,0.043-0.07,0.068c-0.721,0.955-0.637,1.928-0.158,2.601
				l3.615-1.291C47.884,78.732,46.197,77.691,44.6,78.831z"/></g><g><circle style="fill:#55C9BE;" cx="64" cy="65" r="2"/></g><g><circle style="fill:#55C9BE;" cx="37" cy="69" r="2"/></g><g><ellipse style="fill:#AAF0E9;" cx="58" cy="30.5" rx="3" ry="1.5"/></g><g><ellipse style="fill:#AAF0E9;" cx="51.5" cy="41.25" rx="2.5" ry="1.25"/></g><g><ellipse style="fill:#AAF0E9;" cx="66.5" cy="37" rx="4.5" ry="2"/></g><g><ellipse style="fill:#AAF0E9;" cx="42" cy="48" rx="2" ry="1"/></g></g></g><g id="R-Green" style="display:none;"><circle style="display:inline;fill:#77E0C4;" cx="55" cy="55" r="55"/><g style="display:inline;"><g><path style="fill:#AAF0E9;" d="M83,39L27,59v26c0,0.65,0.316,1.26,0.848,1.635c0.531,0.375,1.213,0.468,1.825,0.249L83,67.838V39
				z"/></g><g><path style="fill:#FFFFFF;" d="M83,39L27,59l28-36C67.21,23,78.326,30.413,83,39z"/></g><g><circle style="fill:#55C9BE;" cx="52" cy="70" r="1"/></g><g><circle style="fill:#55C9BE;" cx="78" cy="46" r="1"/></g><g><circle style="fill:#55C9BE;" cx="71" cy="55" r="4"/></g><g><circle style="fill:#55C9BE;" cx="40" cy="58" r="1"/></g><g><path style="fill:#55C9BE;" d="M44.6,78.831c-0.025,0.018-0.051,0.043-0.07,0.068c-0.721,0.955-0.637,1.928-0.158,2.601
				l3.615-1.291C47.884,78.732,46.197,77.691,44.6,78.831z"/></g><g><circle style="fill:#55C9BE;" cx="64" cy="65" r="2"/></g><g><circle style="fill:#55C9BE;" cx="37" cy="69" r="2"/></g><g><ellipse style="fill:#AAF0E9;" cx="58" cy="30.5" rx="3" ry="1.5"/></g><g><ellipse style="fill:#AAF0E9;" cx="51.5" cy="41.25" rx="2.5" ry="1.25"/></g><g><ellipse style="fill:#AAF0E9;" cx="66.5" cy="37" rx="4.5" ry="2"/></g><g><ellipse style="fill:#AAF0E9;" cx="42" cy="48" rx="2" ry="1"/></g></g></g><g id="Red" style="display:none;"><g style="display:inline;"><g><path style="fill:#FFD7D4;" d="M83,39L27,59v26c0,0.65,0.316,1.26,0.848,1.635c0.531,0.375,1.213,0.468,1.825,0.249L83,67.838V39
				z"/></g><g><path style="fill:#FFFFFF;" d="M83,39L27,59l28-36C67.21,23,78.326,30.413,83,39z"/></g><g><circle style="fill:#E8A099;" cx="52" cy="70" r="1"/></g><g><circle style="fill:#E8A099;" cx="78" cy="46" r="1"/></g><g><circle style="fill:#E8A099;" cx="71" cy="55" r="4"/></g><g><circle style="fill:#E8A099;" cx="40" cy="58" r="1"/></g><g><path style="fill:#E8A099;" d="M44.6,78.831c-0.025,0.018-0.051,0.043-0.07,0.068c-0.721,0.955-0.637,1.928-0.158,2.601
				l3.615-1.291C47.884,78.732,46.197,77.691,44.6,78.831z"/></g><g><circle style="fill:#E8A099;" cx="64" cy="65" r="2"/></g><g><circle style="fill:#E8A099;" cx="37" cy="69" r="2"/></g><g><ellipse style="fill:#FFD7D4;" cx="58" cy="30.5" rx="3" ry="1.5"/></g><g><ellipse style="fill:#FFD7D4;" cx="51.5" cy="41.25" rx="2.5" ry="1.25"/></g><g><ellipse style="fill:#FFD7D4;" cx="66.5" cy="37" rx="4.5" ry="2"/></g><g><ellipse style="fill:#FFD7D4;" cx="42" cy="48" rx="2" ry="1"/></g></g></g><g id="R-Red" style="display:none;"><circle style="display:inline;fill:#FABBAF;" cx="55" cy="55" r="55"/><g style="display:inline;"><g><path style="fill:#FFD7D4;" d="M83,39L27,59v26c0,0.65,0.316,1.26,0.848,1.635c0.531,0.375,1.213,0.468,1.825,0.249L83,67.838V39
				z"/></g><g><path style="fill:#FFFFFF;" d="M83,39L27,59l28-36C67.21,23,78.326,30.413,83,39z"/></g><g><circle style="fill:#E8A099;" cx="52" cy="70" r="1"/></g><g><circle style="fill:#E8A099;" cx="78" cy="46" r="1"/></g><g><circle style="fill:#E8A099;" cx="71" cy="55" r="4"/></g><g><circle style="fill:#E8A099;" cx="40" cy="58" r="1"/></g><g><path style="fill:#E8A099;" d="M44.6,78.831c-0.025,0.018-0.051,0.043-0.07,0.068c-0.721,0.955-0.637,1.928-0.158,2.601
				l3.615-1.291C47.884,78.732,46.197,77.691,44.6,78.831z"/></g><g><circle style="fill:#E8A099;" cx="64" cy="65" r="2"/></g><g><circle style="fill:#E8A099;" cx="37" cy="69" r="2"/></g><g><ellipse style="fill:#FFD7D4;" cx="58" cy="30.5" rx="3" ry="1.5"/></g><g><ellipse style="fill:#FFD7D4;" cx="51.5" cy="41.25" rx="2.5" ry="1.25"/></g><g><ellipse style="fill:#FFD7D4;" cx="66.5" cy="37" rx="4.5" ry="2"/></g><g><ellipse style="fill:#FFD7D4;" cx="42" cy="48" rx="2" ry="1"/></g></g></g><g id="Yellow" style="display:none;"><g style="display:inline;"><g><path style="fill:#FFE9A1;" d="M83,39L27,59v26c0,0.65,0.316,1.26,0.848,1.635c0.531,0.375,1.213,0.468,1.825,0.249L83,67.838V39
				z"/></g><g><path style="fill:#FFFFFF;" d="M83,39L27,59l28-36C67.21,23,78.326,30.413,83,39z"/></g><g><circle style="fill:#F5C43D;" cx="52" cy="70" r="1"/></g><g><circle style="fill:#F5C43D;" cx="78" cy="46" r="1"/></g><g><circle style="fill:#F5C43D;" cx="71" cy="55" r="4"/></g><g><circle style="fill:#F5C43D;" cx="40" cy="58" r="1"/></g><g><path style="fill:#F5C43D;" d="M44.6,78.831c-0.025,0.018-0.051,0.043-0.07,0.068c-0.721,0.955-0.637,1.928-0.158,2.601
				l3.615-1.291C47.884,78.732,46.197,77.691,44.6,78.831z"/></g><g><circle style="fill:#F5C43D;" cx="64" cy="65" r="2"/></g><g><circle style="fill:#F5C43D;" cx="37" cy="69" r="2"/></g><g><ellipse style="fill:#FFE9A1;" cx="58" cy="30.5" rx="3" ry="1.5"/></g><g><ellipse style="fill:#FFE9A1;" cx="51.5" cy="41.25" rx="2.5" ry="1.25"/></g><g><ellipse style="fill:#FFE9A1;" cx="66.5" cy="37" rx="4.5" ry="2"/></g><g><ellipse style="fill:#FFE9A1;" cx="42" cy="48" rx="2" ry="1"/></g></g></g><g id="R-Yellow" style="display:none;"><circle style="display:inline;fill:#FFD75E;" cx="55" cy="55" r="55"/><g style="display:inline;"><g><path style="fill:#FFE9A1;" d="M83,39L27,59v26c0,0.65,0.316,1.26,0.848,1.635c0.531,0.375,1.213,0.468,1.825,0.249L83,67.838V39
				z"/></g><g><path style="fill:#FFFFFF;" d="M83,39L27,59l28-36C67.21,23,78.326,30.413,83,39z"/></g><g><circle style="fill:#F5C43D;" cx="52" cy="70" r="1"/></g><g><circle style="fill:#F5C43D;" cx="78" cy="46" r="1"/></g><g><circle style="fill:#F5C43D;" cx="71" cy="55" r="4"/></g><g><circle style="fill:#F5C43D;" cx="40" cy="58" r="1"/></g><g><path style="fill:#F5C43D;" d="M44.6,78.831c-0.025,0.018-0.051,0.043-0.07,0.068c-0.721,0.955-0.637,1.928-0.158,2.601
				l3.615-1.291C47.884,78.732,46.197,77.691,44.6,78.831z"/></g><g><circle style="fill:#F5C43D;" cx="64" cy="65" r="2"/></g><g><circle style="fill:#F5C43D;" cx="37" cy="69" r="2"/></g><g><ellipse style="fill:#FFE9A1;" cx="58" cy="30.5" rx="3" ry="1.5"/></g><g><ellipse style="fill:#FFE9A1;" cx="51.5" cy="41.25" rx="2.5" ry="1.25"/></g><g><ellipse style="fill:#FFE9A1;" cx="66.5" cy="37" rx="4.5" ry="2"/></g><g><ellipse style="fill:#FFE9A1;" cx="42" cy="48" rx="2" ry="1"/></g></g></g></symbol>
<symbol viewBox="0 0 110 110" id="Cashier-2"><g id="Artboard"/><g id="Multicolor"><circle style="fill:#25B7D3;" cx="55" cy="55" r="55"/><g><path style="fill:#CFD3D4;" d="M79,39c0-2.209-1.791-4-4-4H35c-2.209,0-4,1.791-4,4v12h48V39z"/><path style="fill:#F0F1F1;" d="M75,35H35c-2.209,0-4,1.791-4,4v12h29.744l15.716-15.716C76.006,35.106,75.517,35,75,35z"/><rect x="23" y="75" style="fill:#818284;" width="64" height="12"/><polygon style="fill:#F0F1F1;" points="31,51 79,51 87,71 23,71 		"/><polygon style="fill:#FFFFFF;" points="31,51 23,71 40.744,71 60.744,51 		"/><polygon style="fill:#FFFFFF;" points="35,43 35,27 39,31 43,27 47,31 51,27 51,43 		"/><rect x="23" y="71" style="fill:#CFD3D4;" width="64" height="4"/><rect x="55" y="39" style="fill:#17B198;" width="20" height="8"/><polygon style="fill:#4AC3AF;" points="72.744,39 55,39 55,47 64.744,47 		"/><rect x="69" y="32" style="fill:#818284;" width="4" height="3"/><path style="fill:#3E3E3F;" d="M83,24c0-0.552-0.448-1-1-1H60c-0.552,0-1,0.448-1,1v7c0,0.552,0.448,1,1,1h22c0.552,0,1-0.448,1-1
			V24z"/><rect x="34" y="43" style="fill:#CFD3D4;" width="18" height="2"/><path style="fill:#CFD3D4;" d="M47,35.5c0,0.275-0.225,0.5-0.5,0.5h-7c-0.275,0-0.5-0.225-0.5-0.5l0,0c0-0.275,0.225-0.5,0.5-0.5
			h7C46.775,35,47,35.225,47,35.5L47,35.5z"/><path style="fill:#CFD3D4;" d="M47,39.5c0,0.275-0.225,0.5-0.5,0.5h-7c-0.275,0-0.5-0.225-0.5-0.5l0,0c0-0.275,0.225-0.5,0.5-0.5
			h7C46.775,39,47,39.225,47,39.5L47,39.5z"/><circle style="fill:#CFD3D4;" cx="55" cy="81" r="2"/><circle style="fill:#CFD3D4;" cx="35" cy="57" r="2"/><circle style="fill:#CFD3D4;" cx="43" cy="57" r="2"/><circle style="fill:#CFD3D4;" cx="51" cy="57" r="2"/><circle style="fill:#CFD3D4;" cx="33" cy="65" r="2"/><circle style="fill:#CFD3D4;" cx="41" cy="65" r="2"/><circle style="fill:#B6BCBD;" cx="49" cy="65" r="2"/><circle style="fill:#B6BCBD;" cx="61" cy="65" r="2"/><circle style="fill:#B6BCBD;" cx="69" cy="65" r="2"/><circle style="fill:#17B198;" cx="77" cy="65" r="2"/><circle style="fill:#B6BCBD;" cx="59" cy="57" r="2"/><circle style="fill:#B6BCBD;" cx="67" cy="57" r="2"/><circle style="fill:#FA5655;" cx="75" cy="57" r="2"/><path style="fill:#5B5C5F;" d="M74.272,23H60c-0.552,0-1,0.448-1,1v7c0,0.552,0.448,1,1,1h5.272L74.272,23z"/></g></g></symbol>
<symbol viewBox="0 0 110 110" id="Chair-4"><g id="Artboard"/><g id="Multicolor"><circle style="fill:#FABC3D;" cx="55" cy="55" r="55"/><g><g><path style="fill:#FFFFFF;" d="M55,23c-12,0-31.695,14.003-32,30c-0.219,11.479,4,22,32,22c26,0,32-11.57,32-22
				C87,37,67,23,55,23z"/></g><g><ellipse style="fill:#F0F1F1;" cx="55" cy="83" rx="20" ry="4"/></g><g><path style="fill:#CFD3D4;" d="M51,75h8v7c-2.667,1.333-5.333,1.333-8,0V75z"/></g><g><path style="fill:#CFD3D4;" d="M55,29c-9,0-24,11-24,22s9,12,9,12h15h15c0,0,9-1,9-12S64,29,55,29z"/></g><g><path style="fill:#F37A10;" d="M55,51c-9.705,0-18.211,2.277-22.97,5.693C34.391,62.372,40,63,40,63h15h15
				c0,0,5.609-0.628,7.97-6.307C73.211,53.277,64.705,51,55,51z"/></g><g><path style="fill:#FFFFFF;" d="M35,83c0,2.209,8.954,4,20,4v-8C43.954,79,35,80.791,35,83z"/></g><g><path style="fill:#F0F1F1;" d="M51,75v7c1.333,0.667,2.667,1,4,1v-8H51z"/></g></g></g></symbol>
<symbol viewBox="0 0 110 110" id="Chat-2"><g id="Artboard"/><g id="Multicolor"><circle style="fill:#25B7D3;" cx="55" cy="55" r="55"/><g><path style="fill:#6FDAF1;" d="M39,67c0,2.209,1.791,4,4,4h24l12,12V71h4c2.209,0,4-1.791,4-4V35c0-2.209-1.791-4-4-4H43
			c-2.209,0-4,1.791-4,4V67z"/><path style="fill:#F0F1F1;" d="M71,59c0,2.209-1.791,4-4,4H43L31,75V63h-4c-2.209,0-4-1.791-4-4V27c0-2.209,1.791-4,4-4h40
			c2.209,0,4,1.791,4,4V59z"/><path style="fill:#FFFFFF;" d="M70.335,24.798C69.62,23.716,68.395,23,67,23H27c-2.209,0-4,1.791-4,4v32c0,2.209,1.791,4,4,4h4
			v1.134L70.335,24.798z"/><circle style="fill:#21B2D1;" cx="35" cy="43" r="4"/><circle style="fill:#21B2D1;" cx="47" cy="43" r="4"/><circle style="fill:#21B2D1;" cx="59" cy="43" r="4"/></g></g></symbol>
</svg>