<?xml version="1.0" encoding="iso-8859-1"?>
<!-- Generator: Adobe Illustrator 17.1.0, SVG Export Plug-In . SVG Version: 6.00 Build 0)  -->
<!DOCTYPE svg PUBLIC "-//W3C//DTD SVG 1.0//EN" "http://www.w3.org/TR/2001/REC-SVG-20010904/DTD/svg10.dtd">
<svg version="1.0" xmlns="http://www.w3.org/2000/svg" xmlns:xlink="http://www.w3.org/1999/xlink" x="0px" y="0px" width="110px"
	 height="110px" viewBox="0 0 110 110" style="enable-background:new 0 0 110 110;" xml:space="preserve">
<g id="Artboard">
</g>
<g id="Multicolor">
	<circle style="fill:#FABC3D;" cx="55" cy="55" r="55"/>
	<g>
		<path style="fill:#FFFFFF;" d="M43,35h36l7.418,44.507C86.723,81.335,85.311,83,83.459,83H35L43,35z"/>
		<rect x="23" y="55" style="fill:#DF2C2C;" width="48" height="32"/>
		<polygon style="fill:#FA5655;" points="23,55 23,87 26.891,87 58.891,55 		"/>
		<g>
			<path style="fill:#3E3E3F;" d="M70,42c0,0.552-0.448,1-1,1s-1-0.448-1-1V32c0-3.86-3.14-7-7-7s-7,3.14-7,7v10
				c0,0.552-0.448,1-1,1s-1-0.448-1-1V32c0-4.962,4.037-9,9-9s9,4.038,9,9V42z"/>
		</g>
		<polygon style="fill:#FACB1B;" points="71,70 57,70 57,55 53,55 53,70 23,70 23,74 53,74 53,87 57,87 57,74 71,74 		"/>
		<path style="fill:#FBE158;" d="M66.067,61.442c-2.02-2.02-5.652-1.661-8.114,0.8c-1.748,1.748-2.538,6.216-2.85,8.667
			l-0.178,0.147l-0.178-0.147c-0.313-2.451-1.103-6.919-2.85-8.667c-2.461-2.461-6.094-2.82-8.114-0.8
			c-2.02,2.02-1.662,5.652,0.8,8.114c1.475,1.475,4.888,2.266,7.393,2.667l-5.184,5.089L50.054,80l4.871-7.368L59.795,80
			l3.263-2.689l-5.184-5.089c2.505-0.4,5.918-1.192,7.393-2.667C67.728,67.094,68.086,63.461,66.067,61.442z M45.596,66.992
			c-1.257-1.258-1.44-3.113-0.409-4.145s2.887-0.849,4.145,0.409s1.547,5.283,1.547,5.283S46.854,68.249,45.596,66.992z
			 M58.97,68.539c0,0,0.29-4.026,1.547-5.283s3.113-1.44,4.145-0.409s0.849,2.887-0.409,4.145
			C62.995,68.249,58.97,68.539,58.97,68.539z"/>
		<path style="fill:#FBEC9A;" d="M45.596,66.992c-1.257-1.258-1.44-3.113-0.409-4.145s2.887-0.849,4.145,0.409
			c0.198,0.198,0.37,0.47,0.523,0.78l1.907-1.907c-2.458-2.348-5.995-2.672-7.98-0.687c-1.985,1.985-1.661,5.522,0.687,7.98
			l1.907-1.907C46.067,67.362,45.795,67.19,45.596,66.992z"/>
		<g>
			<polygon style="fill:#FBE158;" points="53,55 53,60.891 57,56.891 57,55 			"/>
			<polygon style="fill:#FBE158;" points="23,70 23,74 39.891,74 43.891,70 			"/>
		</g>
	</g>
</g>
</svg>
