<?xml version="1.0" encoding="iso-8859-1"?>
<!-- Generator: Adobe Illustrator 17.1.0, SVG Export Plug-In . SVG Version: 6.00 Build 0)  -->
<!DOCTYPE svg PUBLIC "-//W3C//DTD SVG 1.0//EN" "http://www.w3.org/TR/2001/REC-SVG-20010904/DTD/svg10.dtd">
<svg version="1.0" xmlns="http://www.w3.org/2000/svg" xmlns:xlink="http://www.w3.org/1999/xlink" x="0px" y="0px" width="110px"
	 height="110px" viewBox="0 0 110 110" style="enable-background:new 0 0 110 110;" xml:space="preserve">
<g id="Artboard">
</g>
<g id="Multicolor">
	<circle style="fill:#25B7D3;" cx="55" cy="55" r="55"/>
	<g>
		<path style="fill:#3E3E3F;" d="M63.973,27.688C61.789,25.998,58.841,25,55,25s-6.789,0.998-8.973,2.688L40,23l1,17
			c0,8.284,6.268,15,14,15s14-6.716,14-15l1-17L63.973,27.688z"/>
		<path style="fill:#5B5C5F;" d="M46.027,27.688L40,23l1,17c0,8.284,6.268,15,14,15V25C51.159,25,48.211,25.998,46.027,27.688z"/>
		<path style="fill:#3E3E3F;" d="M55,49c-4,0-28,2-28,34c0,0,10,4,28,4s28-4,28-4C83,51,59,49,55,49z"/>
		<path style="fill:#CFD3D4;" d="M55,87c6.848,0,12.534-0.579,16.956-1.297C71.055,59.729,55,55,55,55s-16.055,4.729-16.956,30.703
			C42.466,86.421,48.152,87,55,87z"/>
		<path style="fill:#3E3E3F;" d="M63,68l-4,3v-4l-4,3l-4-3v4l-3.997-3c-3.012,2.559-5.095,5.652-5,10c6-0.667,9.997,0,12.997,5
			c3-5,7-5.667,13-5C68.095,73.652,66.012,70.559,63,68z"/>
		<path style="fill:#FBC8C8;" d="M55,55c3.694,0,7.045-1.545,9.546-4.05C69.105,37.41,58.678,45,55,45s-14.105-7.59-9.546,5.95
			C47.955,53.455,51.306,55,55,55z"/>
		<path style="fill:#CFD3D4;" d="M62.523,39.692c-2.49,1.341-5.723,0.173-5.723,0.173s0.805-3.341,3.295-4.682
			c2.49-1.341,5.723-0.173,5.723-0.173S65.013,38.351,62.523,39.692z"/>
		<path style="fill:#CFD3D4;" d="M47.477,39.692c2.49,1.341,5.723,0.173,5.723,0.173s-0.805-3.341-3.295-4.682
			c-2.49-1.341-5.723-0.173-5.723-0.173S44.987,38.351,47.477,39.692z"/>
		<path style="fill:#FBD7D7;" d="M45.454,50.95C47.956,53.455,51.306,55,55,55V45C51.322,45,40.895,37.41,45.454,50.95z"/>
		<path style="fill:#F79392;" d="M50,48h10c0,0,0,3-5,3S50,48,50,48z"/>
		<path style="fill:#5B5C5F;" d="M51,67v4l-3.997-3c-3.011,2.559-5.095,5.652-5,10c6-0.667,9.997,0,12.997,5V70L51,67z"/>
	</g>
</g>
</svg>
