<?xml version="1.0" encoding="iso-8859-1"?>
<!-- Generator: Adobe Illustrator 17.1.0, SVG Export Plug-In . SVG Version: 6.00 Build 0)  -->
<!DOCTYPE svg PUBLIC "-//W3C//DTD SVG 1.0//EN" "http://www.w3.org/TR/2001/REC-SVG-20010904/DTD/svg10.dtd">
<svg version="1.0" xmlns="http://www.w3.org/2000/svg" xmlns:xlink="http://www.w3.org/1999/xlink" x="0px" y="0px" width="110px"
	 height="110px" viewBox="0 0 110 110" style="enable-background:new 0 0 110 110;" xml:space="preserve">
<g id="Artboard">
</g>
<g id="Multicolor">
	<circle style="fill:#32BEA6;" cx="55" cy="55" r="55"/>
	<g>
		<path style="fill:#FFFFFF;" d="M71,31h-8v-4c0-2.209-1.791-4-4-4h-8c-2.209,0-4,1.791-4,4v4h-8c-3.314,0-6,2.687-6,6v44
			c0,3.313,2.686,6,6,6h32c3.314,0,6-2.687,6-6V37C77,33.687,74.314,31,71,31z"/>
		<path style="fill:#059BBF;" d="M73,81c0,1.105-0.895,2-2,2H39c-1.105,0-2-0.895-2-2V37c0-1.105,0.895-2,2-2h32
			c1.105,0,2,0.895,2,2V81z"/>
		<path style="fill:#21B2D1;" d="M55,35H39c-1.104,0-2,0.896-2,2v44c0,1.104,0.896,2,2,2h16V35z"/>
		<polygon style="fill:#FFFFFF;" points="63,42.875 43.5,62.375 53.25,62.375 50,75.375 69.5,55.875 59.75,55.875 		"/>
	</g>
</g>
</svg>
