<?xml version="1.0" encoding="iso-8859-1"?>
<!-- Generator: Adobe Illustrator 17.1.0, SVG Export Plug-In . SVG Version: 6.00 Build 0)  -->
<!DOCTYPE svg PUBLIC "-//W3C//DTD SVG 1.0//EN" "http://www.w3.org/TR/2001/REC-SVG-20010904/DTD/svg10.dtd">
<svg version="1.0" xmlns="http://www.w3.org/2000/svg" xmlns:xlink="http://www.w3.org/1999/xlink" x="0px" y="0px" width="110px"
	 height="110px" viewBox="0 0 110 110" style="enable-background:new 0 0 110 110;" xml:space="preserve">
<g id="Artboard">
</g>
<g id="Multicolor">
	<circle style="fill:#FABC3D;" cx="55" cy="55" r="55"/>
	<g>
		<g>
			<path style="fill:#F8E1C2;" d="M22.926,87.052h64C79.942,74.829,38.618,62.642,22.926,87.052z"/>
		</g>
		<path style="fill:#84462D;" d="M54.926,42.052c-0.972-0.04-1.918-0.043-2.846-0.02c-1.656,1.505-3.167,3.179-4.534,4.97
			c-7.69,10.05-11.013,23.586-12.139,29.308c4.828-2.209,10.196-3.229,15.617-3.34c0.263-8.215,1.145-17.889,3.542-24.659
			c0.727-2.11,1.467-3.617,2.129-4.7C56.141,43.063,55.561,42.536,54.926,42.052z"/>
		<g>
			<path style="fill:#0C7367;" d="M54.926,42.052c-8.058-0.329-14.565,1.567-20,5c1.11-4.971,4.296-8.725,10-11
				c-6.119-1.922-12.117-0.526-18,4c6.402-11.443,15.209-13.565,26-8c-0.699-3.264-4.013-5.85-9-8c7.873-0.394,13.412,1.427,15,7
				c3.851-3.019,7.878-2.481,12,0c-3.129-0.024-5.889,1.033-8,4c8.103,1.754,11.203,7.872,12,16c-3.802-4.298-7.723-7.61-12-8
				c1.888,4.164,1.446,8.125,0,12C61.443,49.77,59.063,45.207,54.926,42.052z"/>
		</g>
		<g>
			<path style="fill:#9C6144;" d="M38.306,65.331c-0.09,0.27-0.175,0.534-0.26,0.8c4.197,0.405,11.18,1.657,13.19,2.041
				c0.04-0.67,0.09-1.32,0.13-1.96C49.448,65.9,42.378,64.864,38.306,65.331z"/>
		</g>
		<g>
			<path style="fill:#9C6144;" d="M40.862,58.636c-0.096,0.22-0.189,0.439-0.282,0.658c3.244,0.656,8.554,2.059,11.167,2.927
				c0.06-0.65,0.14-1.28,0.22-1.89C49.289,59.583,44.023,58.5,40.862,58.636z"/>
		</g>
		<g>
			<path style="fill:#9C6144;" d="M43.733,52.841c-0.092,0.164-0.187,0.328-0.278,0.493c2.612,0.628,6.696,1.817,9.16,2.728
				c0.11-0.61,0.22-1.2,0.34-1.76C50.57,53.577,46.688,52.784,43.733,52.841z"/>
		</g>
		<g>
			<path style="fill:#9C6144;" d="M47.546,47.002c-0.149,0.195-0.292,0.396-0.438,0.594c2.225,0.588,5.286,1.409,6.968,2.236
				c0.16-0.54,0.32-1.04,0.49-1.521c-1.745-0.658-4.7-1.215-6.957-1.389C47.589,46.949,47.567,46.975,47.546,47.002z"/>
		</g>
		<g>
			<path style="fill:#FCF1E2;" d="M22.926,87.052H42.09l13.938-13.938C43.49,72.158,30.344,75.512,22.926,87.052z"/>
		</g>
	</g>
</g>
</svg>
