<?xml version="1.0" encoding="iso-8859-1"?>
<!-- Generator: Adobe Illustrator 17.1.0, SVG Export Plug-In . SVG Version: 6.00 Build 0)  -->
<!DOCTYPE svg PUBLIC "-//W3C//DTD SVG 1.0//EN" "http://www.w3.org/TR/2001/REC-SVG-20010904/DTD/svg10.dtd">
<svg version="1.0" xmlns="http://www.w3.org/2000/svg" xmlns:xlink="http://www.w3.org/1999/xlink" x="0px" y="0px" width="110px"
	 height="110px" viewBox="0 0 110 110" style="enable-background:new 0 0 110 110;" xml:space="preserve">
<g id="Artboard">
</g>
<g id="Multicolor">
	<circle style="fill:#FABC3D;" cx="55" cy="55" r="55"/>
	<g>
		<g>
			<path style="fill:#F0F1F1;" d="M79,71c0,1.38-0.26,2.72-0.76,4C75.58,81.9,66.18,87,55,87s-20.58-5.1-23.24-12
				c-0.5-1.28-0.76-2.62-0.76-4H79z"/>
		</g>
		<g>
			<path style="fill:#FFFFFF;" d="M31,71c0,1.38,0.26,2.72,0.76,4C34.42,81.9,43.82,87,55,87V71H31z"/>
		</g>
		<g>
			<path style="fill:#099686;" d="M85.209,38.804c3.994-5.28-6.898-14.919-19.094-10.28C61.568,25.19,57.555,23,52.054,23
				c-7.869,0-14.616,4.799-17.479,11.629c-1.924-0.251-4.346,1.462-4.346,4.109c0,0.006,0.001,0.011,0.001,0.016
				C26.28,38.569,23,40.486,23,42.869c0,3.96,8.213,5.639,12.077,2.476C37.196,46.369,40.022,47,43.138,47
				c5.646,0,10.362-2.057,11.568-4.812C56.413,44.99,60.985,47,66.374,47c2.879,0,6.138-0.628,8.648-2.056
				C80.883,50.034,88.984,45.008,85.209,38.804z"/>
		</g>
		<g>
			<path style="fill:#099686;" d="M76.804,56.143C73.739,55.52,71,57.091,71,59c0,1.93,2.771,3.474,5.804,2.857
				C80.584,64.325,87,62.535,87,59C87,55.465,80.583,53.676,76.804,56.143z"/>
		</g>
		<g>
			<path style="fill:#84462D;" d="M71.041,59.392L63,61c3.392-2.261,6.544-4.522,8.237-6.784c0.5-0.667,0.533-1.575,0.084-2.277
				l-1.987-3.105c-0.212-0.53-0.187-1.126,0.068-1.637l0.241-0.482C68.597,46.885,67.513,47,66.374,47
				c-1.704,0-3.325-0.202-4.8-0.565c0.488,1.125,1.88,2.96,1.426,3.565c-0.531,0.708-7.881-0.458-11.286-4.922
				c-0.953,0.521-2.076,0.956-3.326,1.278C50.271,51.201,57.168,52.385,59,53c2.018,0.678-2.075,3.163-7.124,6.748
				c-0.608,0.432-1.408,0.49-2.072,0.15c-0.794-0.407-1.451-0.813-1.997-1.22c-0.719,0.642-1.689,1.217-2.83,1.668
				c0.708,0.801,1.668,1.702,2.676,2.553C44.598,65.332,41.696,68.08,40,71h20c0-6.416,8.998-8.971,12.564-9.732
				C71.75,60.797,71.188,60.136,71.041,59.392z"/>
		</g>
		<g>
			<path style="fill:#099686;" d="M49.145,55.805c-0.367-2.04-3.637-3.184-7.474-2.698c-4.403-2.24-11.655-0.882-12.573,2.276
				C26.668,55.962,25,57.139,25,58.5c0,1.933,3.358,3.5,7.5,3.5c1.939,0,3.7-0.346,5.031-0.91c1.375,0.296,3.042,0.323,4.797,0.007
				C46.484,60.349,49.537,57.979,49.145,55.805z"/>
		</g>
		<g>
			<path style="fill:#E2E4E5;" d="M79,71c0,1.38-0.26,2.72-0.76,4H31.76c-0.5-1.28-0.76-2.62-0.76-4H79z"/>
		</g>
		<g>
			<path style="fill:#12B2A0;" d="M66.115,28.523C61.568,25.189,57.555,23,52.054,23c-7.869,0-14.616,4.799-17.479,11.629
				c-1.924-0.251-4.346,1.461-4.346,4.109c0,0.006,0.001,0.011,0.001,0.016C26.28,38.569,23,40.486,23,42.869
				c0,3.959,8.213,5.639,12.077,2.476c0.527,0.255,1.099,0.486,1.708,0.688l31.448-18.157
				C67.519,28.048,66.811,28.259,66.115,28.523z"/>
		</g>
		<g>
			<path style="fill:#F0F1F1;" d="M55,71H31c0,1.38,0.26,2.72,0.76,4H55V71z"/>
		</g>
	</g>
</g>
</svg>
