<?xml version="1.0" encoding="iso-8859-1"?>
<!-- Generator: Adobe Illustrator 17.1.0, SVG Export Plug-In . SVG Version: 6.00 Build 0)  -->
<!DOCTYPE svg PUBLIC "-//W3C//DTD SVG 1.0//EN" "http://www.w3.org/TR/2001/REC-SVG-20010904/DTD/svg10.dtd">
<svg version="1.0" xmlns="http://www.w3.org/2000/svg" xmlns:xlink="http://www.w3.org/1999/xlink" x="0px" y="0px" width="110px"
	 height="110px" viewBox="0 0 110 110" style="enable-background:new 0 0 110 110;" xml:space="preserve">
<g id="Artboard">
</g>
<g id="Multicolor">
	<g>
		<circle style="fill:#32BEA6;" cx="55" cy="55" r="55"/>
	</g>
	<g>
		<g>
			<polygon style="fill:#F1F2F2;" points="55,87 43,67.997 67,67.997 			"/>
		</g>
		<path style="fill:#F7B4B4;" d="M57.655,68H55h-2.655c-0.856,0-1.671-0.365-2.24-1.004L45,63v4.497c0,0,0,7.5,10,7.5s10-7.5,10-7.5
			V63l-5.105,3.996C59.326,67.635,58.511,68,57.655,68z"/>
		<path style="fill:#FBC8C8;" d="M50.105,66.996L45,63v4.497c0,0,0,7.5,10,7.5V68h-2.655C51.489,68,50.674,67.635,50.105,66.996z"/>
		<g>
			<polygon style="fill:#FFFFFF;" points="43,67.997 45,66.997 54.985,71.978 49,77.997 			"/>
		</g>
		<g>
			<polygon style="fill:#FFFFFF;" points="67,67.997 65,66.997 55.015,71.978 61,77.997 			"/>
		</g>
		<g>
			<polygon style="fill:#DF2C2C;" points="59,87 56.201,76.8 58,75.002 54.981,71.978 51.983,74.976 53.801,76.793 51,87 			"/>
		</g>
		<g>
			<polygon style="fill:#FA5655;" points="55,87 55,71.997 54.981,71.978 51.983,74.976 53.801,76.793 51,87 			"/>
		</g>
		<g>
			<path style="fill:#FFFFFF;" d="M23,87l4-11c0.615-1.333,1.698-2.394,3.043-2.983L43,68l12,19H23z"/>
		</g>
		<g>
			<path style="fill:#FFFFFF;" d="M87,87l-4-11c-0.615-1.333-1.698-2.394-3.043-2.983L67,68L55,87H87z"/>
		</g>
		<path style="fill:#FBC8C8;" d="M70,45c-1,0-1,1.111-1,1.111V46h-1v-7.902C65.643,40.306,61.912,42,56,42
			c-9.201,0-13.313-5.068-13.913-5.88c-0.029,0.076-0.06,0.151-0.087,0.228V46h-1v6.997l4,10l5.105,3.996
			c0.569,0.639,1.384,1.004,2.24,1.004H55h2.655c0.856,0,1.671-0.365,2.24-1.004L65,62.997l3.207-8.017
			C71.042,54.776,72,50.476,72,47.222C72,46.111,71,45,70,45z"/>
		<path style="fill:#FBD7D7;" d="M42,36c-0.029,0.076,0.028,0.274,0,0.351v9.652h-1c0,0,0.017,0.071-0.065-0.277
			c-0.095-0.321-0.332-0.723-0.935-0.723c-1,0-2,1.111-2,2.222c0,3.253,0.958,7.554,3.793,7.758L45,63l5.105,3.996
			C50.674,67.635,51.489,68,52.345,68H55V41.966C46.511,41.61,42.577,36.781,42,36z"/>
		<g>
			<polygon style="fill:#F3B607;" points="33,87 55,87 43,68 33,71.872 			"/>
		</g>
		<g>
			<polygon style="fill:#F3B607;" points="77,87 55,87 67,68 77,71.872 			"/>
		</g>
		<g>
			<g>
				<polygon style="fill:#FACB1B;" points="37,70.323 37,87 40,87 40,69.162 				"/>
			</g>
			<g>
				<polygon style="fill:#FACB1B;" points="47,74.333 44,69.583 44,87 47,87 				"/>
			</g>
		</g>
		<g>
			<g>
				<polygon style="fill:#FACB1B;" points="73,70.323 73,87 70,87 70,69.162 				"/>
			</g>
			<g>
				<polygon style="fill:#FACB1B;" points="63,74.333 66,69.583 66,87 63,87 				"/>
			</g>
		</g>
		<g>
			<path style="fill:#F79392;" d="M50,56.997h10c0,0,0,3-5,3S50,56.997,50,56.997z"/>
		</g>
		<path style="fill:#3E3E3F;" d="M69.426,36.491C72.321,32.572,72,28,72,28H55h-6.866c-2.58,0-5.038,1.099-6.759,3.021
			c-1.721,1.922-2.542,4.486-2.256,7.051L41,46h1V36c0,0,4,6,14,6c5.912,0,9.643-1.694,12-3.902V46h1l1.272-7.09
			c0.175-0.699,0.018-1.441-0.426-2.009C69.724,36.744,69.581,36.61,69.426,36.491z"/>
		<g>
			<path style="fill:#3E3E3F;" d="M61.934,43.467H48.067c-1.192,0-6.067,0.379-6.067,3.467C42,50.021,43.246,53,46.333,53
				c2.851,0,6.583-2.384,6.902-6.385c0.432-0.338,1.054-0.548,1.764-0.548c0.002,0,0.003,0,0.005,0
				c0.709,0.001,1.332,0.212,1.761,0.551c0.32,4,4.052,6.383,6.902,6.383C66.754,53,68,50.021,68,46.934
				C68,43.846,63.125,43.467,61.934,43.467z M53.215,45.608c-0.126-0.558-0.484-0.97-0.96-1.275h5.49
				c-0.473,0.303-0.828,0.711-0.957,1.263c-0.508-0.253-1.118-0.396-1.784-0.396C54.337,45.218,53.725,45.36,53.215,45.608z"/>
			<g>
				<g>
					<path style="fill:#5B5C5F;" d="M51.533,45.532c-1.008-0.306-2.228-0.332-2.764-0.332c-0.989,0-5.036,0.273-5.036,2.498
						c0,1.387,0.402,2.744,1.327,3.569L51.533,45.532z"/>
				</g>
			</g>
			<g>
				<g>
					<path style="fill:#5B5C5F;" d="M58.467,45.532c1.008-0.306,2.228-0.332,2.764-0.332c0.989,0,5.036,0.273,5.036,2.498
						c0,1.387-0.402,2.744-1.327,3.569L58.467,45.532z"/>
				</g>
			</g>
		</g>
		<g>
			<g>
				<path style="fill:#692E19;" d="M75.556,58.894c-2.4-0.48-17.65-3.528-18.238-0.587c-0.588,2.942,15.003,6.059,17.553,6.568
					c1.354,0.271,2.715-0.827,3.04-2.452C78.551,59.221,75.556,58.894,75.556,58.894z"/>
			</g>
			<g>
				
					<ellipse transform="matrix(0.9806 0.196 -0.196 0.9806 13.6332 -13.6844)" style="fill:#FA5655;" cx="75.949" cy="62.032" rx="2" ry="3"/>
			</g>
		</g>
	</g>
</g>
</svg>
