<?xml version="1.0" encoding="iso-8859-1"?>
<!-- Generator: Adobe Illustrator 17.1.0, SVG Export Plug-In . SVG Version: 6.00 Build 0)  -->
<!DOCTYPE svg PUBLIC "-//W3C//DTD SVG 1.0//EN" "http://www.w3.org/TR/2001/REC-SVG-20010904/DTD/svg10.dtd">
<svg version="1.0" xmlns="http://www.w3.org/2000/svg" xmlns:xlink="http://www.w3.org/1999/xlink" x="0px" y="0px" width="110px"
	 height="110px" viewBox="0 0 110 110" style="enable-background:new 0 0 110 110;" xml:space="preserve">
<g id="Artboard">
</g>
<g id="Multicolor">
	<g>
		<circle style="fill:#32BEA6;" cx="55" cy="55" r="55"/>
	</g>
	<g>
		<g>
			<g>
				<path style="fill:#0484AB;" d="M55,70l-7-1l-16.241,3.872c-2.371,0.711-4.279,2.48-5.168,4.791L23,87h32V70z"/>
			</g>
			<g>
				<path style="fill:#0484AB;" d="M55,70l7-1l16.241,3.872c2.371,0.711,4.279,2.48,5.168,4.791L87,87H55V70z"/>
			</g>
		</g>
		<path style="fill:#F4D0A1;" d="M55,68.371c-3.284-1.094-7.159-3.171-10-7.568v13.586c0,1.725,0.329,3.434,0.97,5.035L49,87h12
			l3.03-7.576c0.641-1.601,0.97-3.31,0.97-5.035V60.803C62.159,65.2,58.284,67.277,55,68.371z"/>
		<path style="fill:#F8E1C2;" d="M45,60.803v13.586c0,1.725,0.329,3.434,0.97,5.035L49,87h6V68.371
			C51.716,67.277,47.841,65.2,45,60.803z"/>
		<g>
			<path style="fill:#FFFFFF;" d="M54.977,83c-2.887,0-5.605-0.387-8.023-1.058L48.977,87h12L63,81.942
				C60.582,82.613,57.863,83,54.977,83z"/>
		</g>
		<g>
			<path style="fill:#21B2D1;" d="M43,87h6l-3.03-7.576c-0.641-1.601-0.97-3.31-0.97-5.035V67c-2,2-4,4-6,7l4,2l-5,5L43,87z"/>
		</g>
		<g>
			<path style="fill:#21B2D1;" d="M67,87h-6l3.03-7.576c0.641-1.601,0.97-3.31,0.97-5.035V67c2,2,4,4,6,7l-4,2l5,5L67,87z"/>
		</g>
		<g>
			<g>
				<path style="fill:#FFFFFF;" d="M42,85c0,0.55-0.45,1-1,1H30c-0.55,0-1-0.45-1-1v-7c0-0.55,0.45-1,1-1h11c0.55,0,1,0.45,1,1V85z"
					/>
			</g>
			<g>
				<rect x="30" y="80" style="fill:#9CE5F4;" width="4" height="5"/>
			</g>
			<path style="fill:#9CE5F4;" d="M41,77h-4v-0.5c0-0.825-0.675-1.5-1.5-1.5S34,75.675,34,76.5V77h-4c-0.55,0-1,0.45-1,1v1h13v-1
				C42,77.45,41.55,77,41,77z"/>
		</g>
		<path style="fill:#F8E1C2;" d="M70,44.371c-0.277,0-0.633,0-1,0c0-0.007,0-0.014,0-0.021c-0.018-9.008-1.024-16.979-14-16.979
			S41.018,35.342,41,44.35c0,0.007,0,0.014,0,0.021c-0.368,0-0.723,0-1,0c-1,0-2,1.111-2,2.222c0,3.091,0.864,7.13,4.178,7.703
			C44.62,63.398,50.396,66.837,55,68.371c4.604-1.534,10.38-4.973,12.822-14.075C71.136,53.724,72,49.684,72,46.593
			C72,45.482,71,44.371,70,44.371z"/>
		<path style="fill:#FCF1E2;" d="M41,44.35c0,0.007,0,0.014,0,0.021c-0.368,0-0.723,0-1,0c-1,0-2,1.111-2,2.222
			c0,3.091,0.864,7.13,4.178,7.703C44.62,63.398,50.396,66.837,55,68.371v-41C42.024,27.371,41.018,35.342,41,44.35z"/>
		<g>
			<g>
				<path style="fill:#3E3E3F;" d="M48.964,45.866c1.43,0,2.627,0.277,2.959,1.134c0.004-1-1.003-2.446-2.959-2.446
					c-1.953,0-3.053,1.446-2.959,2.446C46.337,46.144,47.534,45.866,48.964,45.866z"/>
			</g>
		</g>
		<g>
			<g>
				<path style="fill:#3E3E3F;" d="M60.887,45.866c1.43,0,2.627,0.277,2.959,1.134c0.004-1-1.003-2.446-2.959-2.446
					c-1.953,0-3.053,1.446-2.959,2.446C58.26,46.144,59.457,45.866,60.887,45.866z"/>
			</g>
		</g>
		<g>
			<path style="fill:#3E3E3F;" d="M65,61c11,5,8.074,17.046,14,26c-13-6-14-12-14-20C65,67,65,62,65,61z"/>
		</g>
		<path style="fill:#3E3E3F;" d="M50.084,27.346C49.81,27.17,49.458,27.042,49,27c-11-1-11.931,13.548-8.006,17.606
			c1.79-0.541,8.368-5.803,9.735-11.803C54.228,39.733,69.254,45.09,69,45C79.845,26.302,51.823,19.426,50.084,27.346z"/>
		<g>
			<path style="fill:#F79392;" d="M50,57.371h10c0,0,0,3-5,3S50,57.371,50,57.371z"/>
		</g>
	</g>
</g>
</svg>
