<?xml version="1.0" encoding="iso-8859-1"?>
<!-- Generator: Adobe Illustrator 17.1.0, SVG Export Plug-In . SVG Version: 6.00 Build 0)  -->
<!DOCTYPE svg PUBLIC "-//W3C//DTD SVG 1.0//EN" "http://www.w3.org/TR/2001/REC-SVG-20010904/DTD/svg10.dtd">
<svg version="1.0" xmlns="http://www.w3.org/2000/svg" xmlns:xlink="http://www.w3.org/1999/xlink" x="0px" y="0px" width="110px"
	 height="110px" viewBox="0 0 110 110" style="enable-background:new 0 0 110 110;" xml:space="preserve">
<g id="Artboard">
</g>
<g id="Multicolor">
	<circle style="fill:#E04F5F;" cx="55" cy="55" r="55"/>
	<g>
		<g>
			<path style="fill:#F3B607;" d="M83,85c0,1.105-0.895,2-2,2H61c-1.105,0-2-0.895-2-2V41c0-1.105,0.895-2,2-2h20
				c1.105,0,2,0.895,2,2V85z"/>
		</g>
		<g>
			<path style="fill:#FACB1B;" d="M71.001,39H61c-1.105,0-2,0.896-2,2v44c0,1.104,0.895,2,2,2h10V39z"/>
		</g>
		<g>
			<path style="fill:#FBE158;" d="M62,58.5c0,2.485,2.015,4.5,4.5,4.5s4.5-2.015,4.5-4.5v-10c0-0.828,0.672-1.5,1.5-1.5
				s1.5,0.672,1.5,1.5v4c0,1.381,1.119,2.5,2.5,2.5s2.5-1.119,2.5-2.5V39H61c-1.104,0-2,0.896-2,2v15h3V58.5z"/>
		</g>
		<g>
			<path style="fill:#FBEC9A;" d="M71.001,39H61c-1.104,0-2,0.896-2,2v15h3v2.5c0,2.485,2.015,4.5,4.5,4.5s4.5-2.015,4.5-4.5v-10
				c0-0.002,0-0.004,0-0.006V39z"/>
		</g>
		<g>
			<path style="fill:#059BBF;" d="M43,57c0-1.105,0.895-2,2-2h16c1.105,0,2,0.895,2,2v28c0,1.105-0.895,2-2,2H45
				c-1.105,0-2-0.895-2-2V57z"/>
		</g>
		<g>
			<path style="fill:#21B2D1;" d="M53.001,55h-8c-1.105,0-2,0.896-2,2v28c0,1.104,0.895,2,2,2h8V55z"/>
		</g>
		<g>
			<path style="fill:#40C9E7;" d="M51,61c0-1.104,0.896-2,2-2s2,0.896,2,2s0.896,2,2,2s2-0.896,2-2v-6H45c-1.104,0-2,0.896-2,2v13h8
				V61z"/>
		</g>
		<g>
			<path style="fill:#FBE158;" d="M77.429,33.286c0,3.156-2.558,5.714-5.714,5.714s-5.714-2.558-5.714-5.714
				c0-3.429,4.571-5.714,3.429-10.286C76.287,25.286,77.429,30.13,77.429,33.286z"/>
		</g>
		<g>
			<path style="fill:#F37A10;" d="M74.572,36.143c0,1.578-1.279,2.857-2.857,2.857s-2.857-1.279-2.857-2.857
				c0-1.714,2.286-2.857,1.714-5.143C74.001,32.143,74.572,34.565,74.572,36.143z"/>
		</g>
		<g>
			<path style="fill:#FBE158;" d="M56.001,51c0,2.209-1.791,4-4,4s-4-1.791-4-4c0-2.4,3.2-4,2.4-7.201
				C55.201,45.399,56.001,48.79,56.001,51z"/>
		</g>
		<g>
			<path style="fill:#F37A10;" d="M54.001,53c0,1.105-0.896,2-2,2s-2-0.896-2-2c0-1.2,1.6-2,1.2-3.6
				C53.601,50.2,54.001,51.895,54.001,53z"/>
		</g>
		<g>
			<path style="fill:#6FDAF1;" d="M53,55h-8c-1.104,0-2,0.896-2,2v14h8V61c0-1.104,0.896-2,2-2h0V55z"/>
		</g>
		<g>
			<g>
				<path style="fill:#F0F1F1;" d="M50.688,70.17c-1.035-2.236-3.907-3.192-6.908-2.513c-0.478-3.32-2.665-5.829-5.294-5.829
					c-2.693,0-4.919,2.634-5.322,6.074c-3.301-1.094-6.644-0.183-7.779,2.269c-1.199,2.591,0.508,5.949,3.824,7.693
					c-1.989,2.758-2.147,6.134-0.215,7.958c2.213,2.089,6.299,1.337,9.042-1.737c2.755,3.087,6.839,3.816,9.042,1.737
					c1.932-1.824,1.775-5.2-0.215-7.958C50.18,76.119,51.887,72.761,50.688,70.17z"/>
			</g>
			<g>
				<path style="fill:#FFFFFF;" d="M43.78,67.657c-0.478-3.32-2.665-5.829-5.294-5.829c-2.693,0-4.919,2.634-5.322,6.074
					c-3.301-1.094-6.644-0.183-7.779,2.269c-1.199,2.591,0.508,5.949,3.824,7.693c-1.701,2.359-2.057,5.166-0.919,7.071
					l17.479-17.48C45.125,67.445,44.457,67.504,43.78,67.657z"/>
			</g>
			<g>
				<circle style="fill:#FACB1B;" cx="38.485" cy="75.313" r="5.394"/>
			</g>
			<g>
				<path style="fill:#FBE158;" d="M38.485,69.919c-2.979,0-5.394,2.415-5.394,5.394c0,1.343,0.494,2.569,1.306,3.513l7.601-7.601
					C41.054,70.413,39.829,69.919,38.485,69.919z"/>
			</g>
		</g>
	</g>
</g>
</svg>
