<?xml version="1.0" encoding="iso-8859-1"?>
<!-- Generator: Adobe Illustrator 17.1.0, SVG Export Plug-In . SVG Version: 6.00 Build 0)  -->
<!DOCTYPE svg PUBLIC "-//W3C//DTD SVG 1.0//EN" "http://www.w3.org/TR/2001/REC-SVG-20010904/DTD/svg10.dtd">
<svg version="1.0" xmlns="http://www.w3.org/2000/svg" xmlns:xlink="http://www.w3.org/1999/xlink" x="0px" y="0px" width="110px"
	 height="110px" viewBox="0 0 110 110" style="enable-background:new 0 0 110 110;" xml:space="preserve">
<g id="Artboard">
</g>
<g id="Multicolor">
	<circle style="fill:#25B7D3;" cx="55" cy="55" r="55"/>
	<g>
		<g>
			<circle style="fill:#DF2C2C;" cx="55" cy="55" r="32"/>
		</g>
		<g>
			<circle style="fill:#E2E4E5;" cx="55" cy="55" r="26"/>
		</g>
		<g>
			<circle style="fill:#DF2C2C;" cx="55" cy="55" r="20"/>
		</g>
		<g>
			<circle style="fill:#0484AB;" cx="55" cy="55" r="14"/>
		</g>
		<g>
			<polygon style="fill:#E2E4E5;" points="55,40.742 59,51 68,51 60.163,56.655 63.354,66.487 55,60.423 46.646,66.495 
				49.837,56.653 41.92,51 51,51 			"/>
		</g>
		<g>
			<path style="fill:#FA5655;" d="M29,55c0-14.359,11.641-26,26-26v-6c-17.673,0-32,14.327-32,32s14.327,32,32,32v-6
				C40.641,81,29,69.359,29,55z"/>
		</g>
		<g>
			<path style="fill:#FFFFFF;" d="M29,55c0,14.359,11.641,26,26,26v-6c-11.046,0-20-8.954-20-20s8.954-20,20-20v-6
				C40.641,29,29,40.641,29,55z"/>
		</g>
		<g>
			<path style="fill:#FA5655;" d="M46.836,66.357l-0.19,0.138l0.073-0.225C43.257,63.721,41,59.629,41,55
				c0-7.697,6.213-13.939,13.897-13.995L55,40.742V35c-11.046,0-20,8.954-20,20s8.954,20,20,20v-6
				C51.95,69,49.136,68.013,46.836,66.357z"/>
		</g>
		<g>
			<path style="fill:#059BBF;" d="M41.92,51H51l3.897-9.995C47.213,41.061,41,47.303,41,55c0,4.629,2.257,8.721,5.719,11.27
				l3.118-9.617L41.92,51z"/>
		</g>
		<g>
			<path style="fill:#059BBF;" d="M46.836,66.357C49.136,68.013,51.95,69,55,69v-8.577L46.836,66.357z"/>
		</g>
		<g>
			<path style="fill:#FFFFFF;" d="M55,41c-0.035,0-0.068,0.005-0.103,0.005L51,51h-9.08l7.917,5.653l-3.118,9.617
				c0.039,0.029,0.077,0.059,0.117,0.087L55,60.423V41z"/>
		</g>
	</g>
</g>
</svg>
